<?xml version="1.0" encoding="utf-8"?>
<!-- Generator: Adobe Illustrator 24.2.3, SVG Export Plug-In . SVG Version: 6.00 Build 0)  -->
<svg version="1.1" id="Layer_1" xmlns="http://www.w3.org/2000/svg" xmlns:xlink="http://www.w3.org/1999/xlink" x="0px" y="0px"
	 viewBox="0 0 15.36 15.36" style="enable-background:new 0 0 15.36 15.36;" xml:space="preserve">
<style type="text/css">
	.st0{enable-background:new    ;}
</style>
<g>
	<g>
		<defs>
			<path id="SVGID_1_" d="M8.4,6.16V5.74h0.41v0.41H8.4V6.16z M6.71,6.16V5.75h0.41v0.41H6.71z M7.61,6.16
				c-0.02,0-0.06-0.04-0.06-0.06c-0.01-0.1-0.01-0.2,0-0.3c0-0.02,0.04-0.06,0.06-0.06c0.11-0.01,0.23,0,0.35,0v0.43
				C7.84,6.16,7.72,6.17,7.61,6.16z M4.67,1.91c-0.04,0.02-0.1,0.02-0.15,0.02c-0.31,0-0.62,0-0.93,0C3.27,1.93,3.1,2.1,3.1,2.42
				c0,1.93,0,3.86,0,5.79c0,0.3,0.12,0.45,0.42,0.5c0.15,0.02,0.22,0.11,0.21,0.24C3.72,9.06,3.61,9.13,3.47,9.12
				c-0.41-0.04-0.69-0.3-0.77-0.7c0-0.02-0.01-0.03-0.02-0.05c0-2.04,0-4.07,0-6.11c0.04-0.21,0.13-0.41,0.3-0.55
				c0.16-0.13,0.34-0.2,0.55-0.2c0.34,0,0.69,0,1.03,0c0.12,0,0.2,0.06,0.23,0.17C4.81,1.78,4.77,1.87,4.67,1.91z M12.54,8.92
				c-0.18,0.15-0.38,0.21-0.61,0.21c-2.02,0-4.05,0-6.07,0c-0.08,0-0.15,0.02-0.21,0.08C5.3,9.56,4.95,9.9,4.6,10.25
				c-0.05,0.05-0.1,0.09-0.16,0.13c-0.04,0-0.08,0.01-0.11,0.02c-0.12-0.05-0.17-0.13-0.17-0.26c0-0.39,0-0.79,0-1.18
				c0-0.14,0.06-0.22,0.16-0.24c0.14-0.03,0.26,0.07,0.26,0.22c0,0.2,0,0.41,0,0.61c0,0.03,0,0.06,0,0.12
				C4.62,9.63,4.64,9.62,4.66,9.6c0.26-0.26,0.52-0.51,0.77-0.77C5.51,8.75,5.61,8.7,5.72,8.7c2.06,0,4.12,0,6.18,0
				c0.1,0,0.21-0.02,0.29-0.06c0.16-0.08,0.21-0.23,0.21-0.41c0-0.4,0-0.79,0-1.19c0-1.54,0-3.07,0-4.61c0-0.12-0.02-0.24-0.1-0.34
				c-0.1-0.12-0.23-0.16-0.38-0.16c-0.32,0-0.65,0-0.97,0c-0.15,0-0.25-0.09-0.24-0.21c0-0.11,0.09-0.2,0.2-0.2
				c0.39,0,0.78-0.01,1.17,0.01c0.38,0.03,0.65,0.31,0.72,0.68c0,0.02,0.01,0.04,0.02,0.06v6.11C12.79,8.58,12.71,8.77,12.54,8.92z"
				/>
		</defs>
		<use xlink:href="#SVGID_1_"  style="overflow:visible;fill:#00A0A7;"/>
		<clipPath id="SVGID_2_">
			<use xlink:href="#SVGID_1_"  style="overflow:visible;"/>
		</clipPath>
	</g>
</g>
<g>
	<g class="st0">
		<defs>
			<path id="SVGID_3_" class="st0" d="M9.67,3.41c-0.1,0-0.19-0.07-0.2-0.17C9.44,3.1,9.44,2.96,9.41,2.82
				C9.23,2.07,8.59,1.54,7.84,1.51C7.07,1.48,6.39,1.95,6.15,2.69C6.1,2.83,6.09,2.99,6.07,3.14C6.06,3.31,5.98,3.42,5.85,3.41
				C5.71,3.4,5.64,3.3,5.65,3.11c0.08-0.94,0.56-1.58,1.43-1.9c0.21-0.08,0.45-0.1,0.67-0.14L7.76,1.1c1.07,0,1.97,0.8,2.1,1.86
				c0.01,0.09,0.01,0.19,0,0.29C9.85,3.34,9.76,3.41,9.67,3.41z M4.79,3.85C4.6,3.84,4.41,3.97,4.39,4.16
				c-0.02,0.2-0.02,0.41,0,0.61c0.02,0.19,0.2,0.32,0.4,0.32V3.85z M11.52,4.93c-0.07,0.33-0.37,0.55-0.71,0.59
				c-0.03,0-0.05,0.01-0.08,0.01c-0.01,0.1-0.02,0.2-0.03,0.3c-0.16,1.14-1.09,1.98-2.24,2.02c-0.08,0-0.15,0-0.23,0
				c-0.16,0-0.22-0.05-0.26-0.21c-0.03-0.13-0.09-0.2-0.19-0.21S7.59,7.48,7.56,7.58C7.53,7.7,7.59,7.8,7.69,7.84
				c0.03,0.01,0.06,0.01,0.09,0.02c0.13,0.03,0.2,0.11,0.19,0.23C7.96,8.2,7.87,8.28,7.73,8.27c-0.27,0-0.51-0.2-0.58-0.47
				C7.08,7.53,7.2,7.24,7.43,7.1c0.32-0.19,0.72-0.08,0.9,0.26c0.02,0.05,0.04,0.07,0.1,0.07c0.79-0.04,1.35-0.42,1.7-1.12
				c0.12-0.25,0.17-0.53,0.17-0.81c0-0.33,0-0.66,0-0.99c0-0.13,0.06-0.21,0.15-0.24c0.13-0.04,0.26,0.05,0.27,0.2
				c0.01,0.17,0,0.34,0,0.52c0,0.04,0,0.07,0,0.11c0.19,0.02,0.39-0.12,0.41-0.32c0.02-0.2,0.02-0.4,0-0.6
				c-0.02-0.19-0.2-0.32-0.41-0.33c-0.06,0-0.13,0-0.19,0c-0.15-0.02-0.23-0.1-0.23-0.25c0-0.12,0-0.23,0-0.35
				c-0.02-1.1-0.52-1.9-1.52-2.38C7.85,0.44,6.64,0.69,5.93,1.44C5.46,1.95,5.22,2.55,5.22,3.25c0,0.66,0,1.33,0,1.99
				c0,0.21-0.07,0.28-0.28,0.29c-0.24,0-0.47-0.03-0.67-0.19c-0.2-0.16-0.3-0.37-0.31-0.63C3.95,4.52,3.95,4.33,3.97,4.15
				C4.01,3.76,4.3,3.48,4.69,3.42c0.04,0,0.07-0.01,0.1-0.02C4.8,3.2,4.8,3,4.83,2.81C4.99,1.53,5.98,0.5,7.24,0.28
				C7.36,0.27,7.48,0.25,7.6,0.23c0.12,0,0.24,0,0.36,0.01c0.2,0.04,0.41,0.06,0.61,0.12c0.71,0.2,1.26,0.62,1.67,1.23
				c0.34,0.51,0.49,1.08,0.48,1.69c0,0.04,0,0.07,0,0.11c0,0.01,0,0.01,0,0.01c0.12,0.03,0.25,0.05,0.35,0.1
				c0.3,0.14,0.47,0.39,0.48,0.73C11.57,4.46,11.57,4.7,11.52,4.93z"/>
		</defs>
		<use xlink:href="#SVGID_3_"  style="overflow:visible;fill:#FEC03F;"/>
		<clipPath id="SVGID_4_">
			<use xlink:href="#SVGID_3_"  style="overflow:visible;"/>
		</clipPath>
	</g>
</g>
<g>
	<g>
		<defs>
			<path id="SVGID_5_" d="M11.72,12.35c0-0.03-0.01-0.05-0.02-0.07c-0.01-0.02-0.02-0.04-0.04-0.05c-0.01-0.01-0.03-0.02-0.05-0.02
				c-0.01,0-0.02,0-0.03,0.01c-0.01,0.01-0.02,0.02-0.03,0.04c-0.01,0.01-0.02,0.03-0.03,0.05c-0.01,0.02-0.01,0.03-0.02,0.05
				c0.01,0.01,0.03,0.02,0.05,0.03c0.02,0.01,0.04,0.01,0.06,0.02s0.04,0.01,0.06,0.01s0.04,0.01,0.06,0.01
				C11.72,12.4,11.72,12.37,11.72,12.35z M11.86,12.47c-0.01,0.03-0.02,0.06-0.04,0.08c-0.02,0.02-0.04,0.04-0.06,0.05
				s-0.04,0.02-0.07,0.02s-0.05,0-0.08-0.01s-0.05-0.01-0.08-0.02s-0.05-0.02-0.08-0.03c-0.02-0.01-0.05-0.02-0.06-0.04
				c-0.01,0.02-0.03,0.03-0.05,0.05c-0.02,0.01-0.03,0.02-0.05,0.03c-0.02,0.01-0.04,0.01-0.06,0.02c-0.02,0-0.04,0-0.07,0h-0.03
				v-0.21h0.03c0.03,0,0.05-0.01,0.07-0.02c0.02-0.01,0.04-0.03,0.05-0.05s0.03-0.04,0.04-0.06s0.02-0.04,0.03-0.07
				c0.01-0.03,0.03-0.05,0.04-0.08c0.02-0.03,0.03-0.05,0.06-0.07c0.02-0.02,0.05-0.04,0.07-0.05c0.03-0.01,0.06-0.02,0.09-0.02
				c0.05,0,0.08,0.01,0.12,0.03c0.03,0.02,0.06,0.05,0.08,0.08c0.02,0.03,0.04,0.07,0.05,0.12c0.01,0.04,0.02,0.09,0.02,0.13
				C11.88,12.41,11.87,12.44,11.86,12.47z M10.48,11.68l0.12-0.12l0.12,0.12L10.6,11.8L10.48,11.68z M10.59,11.87l-0.12,0.12
				l-0.13-0.13l0.12-0.13L10.59,11.87l0.12-0.13l0.13,0.13L10.72,12L10.59,11.87z M11.14,12.63c-0.04,0-0.08-0.01-0.12-0.02
				c-0.04-0.02-0.07-0.04-0.1-0.07l-0.01,0.01c0,0,0,0.01-0.01,0.01l0,0c-0.02,0.02-0.05,0.04-0.08,0.06
				c-0.03,0.01-0.06,0.02-0.1,0.02s-0.08-0.01-0.11-0.03s-0.06-0.04-0.08-0.07c-0.03,0.03-0.06,0.05-0.09,0.07
				c-0.03,0.02-0.07,0.03-0.11,0.03s-0.07-0.01-0.1-0.02c-0.03-0.02-0.06-0.04-0.08-0.07c-0.02,0.03-0.05,0.06-0.09,0.07
				c-0.03,0.01-0.08,0.02-0.13,0.02h0v-0.21h0.01c0.02,0,0.04,0,0.06-0.01s0.04-0.02,0.06-0.04c0.02-0.02,0.03-0.05,0.05-0.09
				s0.03-0.09,0.05-0.15l0.17,0.02c0,0,0,0,0,0.01s-0.01,0.03-0.01,0.05s-0.01,0.04-0.01,0.07c0,0.02,0,0.05,0,0.07
				c0,0.02,0,0.04,0.01,0.06c0,0.02,0.01,0.03,0.03,0.03c0.01,0,0.03,0,0.04-0.01s0.02-0.02,0.04-0.04
				c0.01-0.02,0.02-0.04,0.03-0.06c0.01-0.02,0.02-0.05,0.03-0.07c0.01-0.02,0.01-0.05,0.02-0.07c0.01-0.02,0.01-0.04,0.01-0.06
				l0.17,0.02c0,0.01,0,0.03,0,0.04c0,0.02,0,0.04-0.01,0.06c0,0.02,0,0.04,0,0.06s0,0.04,0.01,0.06c0,0.02,0.01,0.03,0.02,0.04
				s0.02,0.02,0.04,0.02c0.01,0,0.03,0,0.04-0.01s0.02-0.02,0.03-0.04c0.01-0.02,0.01-0.03,0.02-0.05c0-0.02,0.01-0.04,0.01-0.06
				s0-0.04,0-0.06s0-0.04,0-0.05l0.18-0.02l0.02,0.18c0,0.02,0.01,0.04,0.02,0.05c0.01,0.02,0.02,0.03,0.03,0.04
				c0.01,0.01,0.02,0.02,0.04,0.02c0.01,0,0.03,0.01,0.04,0.01h0.02v0.21h-0.06V12.63z M9.94,12.63c-0.05,0-0.1-0.01-0.14-0.02
				s-0.07-0.03-0.09-0.06c-0.02-0.03-0.04-0.06-0.05-0.09s-0.02-0.07-0.02-0.11c0-0.02,0-0.05,0-0.08s0-0.07,0-0.11s0-0.09,0-0.13
				c0-0.05,0-0.1,0-0.15c0-0.05,0-0.1-0.01-0.14c0-0.05-0.01-0.08-0.02-0.12l0.19-0.06c0.01,0.03,0.01,0.06,0.01,0.1
				s0.01,0.08,0.01,0.12s0,0.09,0,0.13s0,0.08,0,0.12c0,0.03,0,0.07,0,0.1c0,0.04,0,0.07,0,0.1c0,0.03,0,0.06,0,0.09
				s0.01,0.05,0.01,0.06s0.01,0.02,0.01,0.02c0.01,0.01,0.01,0.01,0.02,0.01s0.02,0,0.03,0c0.01,0,0.02,0,0.03,0h0.02L9.94,12.63
				L9.94,12.63L9.94,12.63z M9.35,12.35c-0.01-0.02-0.02-0.05-0.03-0.07c-0.01-0.02-0.02-0.04-0.04-0.05
				c-0.02-0.01-0.03-0.02-0.05-0.02c-0.01,0-0.02,0-0.03,0.01c-0.01,0.01-0.02,0.02-0.03,0.03c-0.01,0.01-0.02,0.03-0.02,0.05
				c-0.01,0.02-0.01,0.03-0.01,0.05c0,0.01,0,0.03,0.01,0.04s0.02,0.02,0.04,0.02s0.03,0.01,0.05,0.01s0.04,0.01,0.05,0.01
				c0.02,0,0.03,0,0.05,0h0.04C9.37,12.4,9.36,12.37,9.35,12.35z M9.53,12.69c-0.02,0.04-0.04,0.09-0.07,0.12
				c-0.03,0.04-0.06,0.07-0.1,0.1c-0.04,0.03-0.08,0.06-0.12,0.08c-0.04,0.02-0.09,0.04-0.14,0.06S9,13.08,8.95,13.09l-0.05-0.2
				c0.06-0.01,0.12-0.03,0.17-0.05s0.09-0.04,0.13-0.06s0.07-0.05,0.09-0.07c0.02-0.03,0.04-0.05,0.05-0.08c-0.02,0-0.04,0-0.06,0
				s-0.04,0-0.05,0c-0.04,0-0.08-0.01-0.12-0.02c-0.03-0.01-0.07-0.03-0.09-0.05c0-0.03-0.02-0.06-0.04-0.09
				c-0.01-0.03-0.02-0.07-0.02-0.11c0-0.03,0-0.05,0.01-0.08s0.01-0.05,0.02-0.08s0.02-0.05,0.04-0.07
				c0.02-0.02,0.03-0.04,0.05-0.06s0.04-0.03,0.07-0.04C9.18,12.01,9.21,12,9.23,12c0.04,0,0.08,0.01,0.11,0.03
				c0.03,0.02,0.06,0.04,0.09,0.07s0.05,0.06,0.07,0.1c0.02,0.04,0.03,0.08,0.04,0.12s0.02,0.08,0.02,0.12s0,0.08,0,0.11
				C9.56,12.6,9.54,12.64,9.53,12.69z M8.91,12.65c-0.01,0.04-0.03,0.08-0.05,0.11c-0.02,0.04-0.04,0.07-0.07,0.1
				c-0.03,0.03-0.06,0.06-0.09,0.09s-0.07,0.06-0.11,0.08c-0.04,0.03-0.08,0.05-0.12,0.07l-0.12-0.16c0.03-0.02,0.06-0.03,0.09-0.05
				s0.06-0.04,0.09-0.06s0.06-0.05,0.08-0.07c0.03-0.02,0.05-0.05,0.07-0.08c0.02-0.03,0.03-0.05,0.04-0.08s0.02-0.05,0.02-0.08
				c0-0.02,0-0.04-0.01-0.06c0-0.02-0.01-0.04-0.02-0.07c-0.01-0.02-0.02-0.05-0.03-0.08c-0.01-0.03-0.02-0.06-0.04-0.09l0.19-0.09
				c0.01,0.03,0.02,0.06,0.03,0.09c0.01,0.03,0.02,0.06,0.03,0.1c0.01,0.03,0.02,0.07,0.02,0.1c0.01,0.03,0.01,0.06,0.01,0.09
				C8.93,12.57,8.92,12.61,8.91,12.65z M8.32,12.32c-0.01-0.02-0.02-0.03-0.03-0.05c-0.01-0.02-0.03-0.04-0.05-0.06
				s-0.03-0.04-0.05-0.05c-0.01,0.01-0.02,0.03-0.04,0.04c-0.01,0.02-0.03,0.03-0.04,0.05s-0.02,0.04-0.03,0.06
				c-0.01,0.02-0.01,0.04-0.01,0.06c0,0.01,0.01,0.02,0.02,0.03c0.01,0.01,0.02,0.01,0.03,0.02c0.01,0,0.03,0.01,0.04,0.01
				s0.03,0,0.04,0s0.03,0,0.04,0s0.03-0.01,0.04-0.01s0.02-0.01,0.03-0.02c0.01-0.01,0.01-0.02,0.01-0.03
				C8.33,12.35,8.33,12.34,8.32,12.32z M8.49,12.48c-0.02,0.03-0.04,0.06-0.07,0.08c-0.03,0.02-0.06,0.04-0.1,0.05
				s-0.07,0.02-0.11,0.02c-0.03,0-0.07-0.01-0.11-0.02C8.07,12.6,8.03,12.58,8,12.56c-0.03-0.02-0.05-0.05-0.07-0.08
				S7.9,12.41,7.9,12.37c0-0.09,0.04-0.18,0.12-0.27c0.01-0.01,0.01-0.01,0.02-0.02l0.01-0.01l0.01-0.01l0.01-0.01l-0.04-0.03
				l0.13-0.16c0.02,0.02,0.05,0.04,0.08,0.07s0.07,0.06,0.11,0.11c0.11,0.13,0.17,0.24,0.17,0.34C8.51,12.41,8.5,12.45,8.49,12.48z
				 M7.76,12.34l-0.09,0.04c-0.04,0.02-0.08,0.04-0.11,0.06c-0.04,0.02-0.08,0.04-0.11,0.06c-0.04,0.02-0.08,0.03-0.12,0.05
				s-0.08,0.03-0.13,0.04s-0.09,0.02-0.14,0.03c-0.05,0.01-0.1,0.01-0.16,0.01H6.76v-0.21H6.9c0.07,0,0.13,0,0.19-0.01
				s0.11-0.02,0.16-0.03c0.05-0.01,0.1-0.03,0.15-0.05s0.09-0.04,0.13-0.06c-0.03-0.01-0.06-0.02-0.09-0.03
				c-0.03-0.01-0.06-0.02-0.09-0.03c-0.03-0.01-0.06-0.02-0.09-0.03c-0.03-0.01-0.06-0.01-0.09-0.01c-0.02,0-0.04,0.01-0.06,0.02
				s-0.04,0.02-0.05,0.04c-0.02,0.01-0.03,0.03-0.04,0.04C7.01,12.28,7,12.29,7,12.3l-0.15-0.1c0.02-0.03,0.04-0.06,0.06-0.09
				s0.05-0.05,0.07-0.07c0.03-0.02,0.06-0.04,0.09-0.05s0.06-0.02,0.1-0.02c0.03,0,0.05,0,0.08,0.01C7.28,11.99,7.3,11.99,7.33,12
				c0.03-0.01,0.05,0,0.07,0.02c0.02,0.01,0.05,0.02,0.07,0.03c0.02,0.01,0.05,0.02,0.07,0.03c0.02,0.01,0.05,0.02,0.07,0.03
				c0.02,0.01,0.05,0.02,0.08,0.02c0.03,0.01,0.05,0.01,0.08,0.01L7.76,12.34z M6.77,12.63c-0.01,0-0.02,0-0.04,0
				s-0.03-0.01-0.05-0.01c-0.01,0.05-0.03,0.1-0.05,0.15c-0.03,0.05-0.06,0.09-0.1,0.14c-0.04,0.04-0.08,0.08-0.13,0.12
				s-0.1,0.07-0.16,0.1l-0.12-0.16c0.03-0.02,0.06-0.03,0.09-0.05s0.06-0.04,0.09-0.06s0.05-0.04,0.08-0.06
				c0.02-0.02,0.05-0.05,0.06-0.07c0.02-0.02,0.03-0.05,0.04-0.07c0.01-0.03,0.02-0.05,0.02-0.08c0-0.02,0-0.04-0.01-0.06
				c-0.01-0.03-0.01-0.05-0.02-0.08c-0.01-0.03-0.02-0.06-0.03-0.09s-0.02-0.06-0.03-0.08l0.19-0.08c0.02,0.05,0.03,0.1,0.05,0.13
				s0.03,0.06,0.05,0.08c0.01,0.02,0.03,0.04,0.04,0.04c0.01,0.01,0.03,0.01,0.04,0.01H6.8v0.21H6.77V12.63z M5.81,11.61l0.14-0.14
				l0.14,0.14l-0.14,0.14L5.81,11.61z M6.07,12.14c-0.01-0.02-0.01-0.04-0.02-0.05c-0.01-0.02-0.02-0.03-0.03-0.04
				C6,12.03,5.98,12.03,5.96,12.03c-0.01,0-0.02,0-0.03,0.01s-0.02,0.01-0.03,0.03c-0.01,0.01-0.02,0.02-0.02,0.04
				c-0.01,0.01-0.01,0.03-0.01,0.04s0,0.02,0.01,0.03c0.01,0.01,0.02,0.01,0.03,0.02c0.01,0,0.03,0.01,0.04,0.01
				c0.02,0,0.03,0,0.05,0s0.03,0,0.04,0c0.01,0,0.02,0,0.03,0C6.08,12.18,6.07,12.16,6.07,12.14z M6.25,12.4
				c-0.01,0.04-0.03,0.07-0.06,0.1c-0.03,0.03-0.06,0.05-0.09,0.07c-0.04,0.02-0.08,0.03-0.12,0.04s-0.09,0.02-0.14,0.02
				c-0.05,0-0.1,0.01-0.15,0.01H5.67v-0.21H5.7c0.02,0,0.04,0,0.06,0s0.05,0,0.07,0c0.03,0,0.05,0,0.08,0
				c0.03,0,0.05-0.01,0.08-0.01c0.02,0,0.05-0.01,0.07-0.02s0.04-0.01,0.05-0.02c-0.06,0.01-0.11,0.01-0.16,0
				c-0.05,0-0.09-0.01-0.12-0.03c-0.03-0.02-0.06-0.04-0.08-0.07s-0.03-0.07-0.03-0.12c0-0.02,0-0.05,0.01-0.07
				c0-0.03,0.01-0.05,0.02-0.07c0.01-0.02,0.02-0.05,0.04-0.07c0.01-0.02,0.03-0.04,0.05-0.06s0.04-0.03,0.06-0.04
				s0.05-0.01,0.08-0.01c0.03,0,0.07,0.01,0.09,0.02c0.03,0.01,0.05,0.03,0.08,0.05c0.02,0.02,0.04,0.05,0.06,0.08
				s0.03,0.06,0.04,0.09c0.01,0.03,0.02,0.07,0.03,0.1c0.01,0.03,0.01,0.07,0.01,0.1C6.27,12.31,6.26,12.36,6.25,12.4z M5.38,12.31
				c0-0.01,0-0.02,0-0.03c0-0.01,0-0.03-0.01-0.05c0-0.02,0-0.04-0.01-0.06c-0.02,0.01-0.03,0.02-0.06,0.03
				c-0.02,0.01-0.04,0.02-0.06,0.04c-0.02,0.01-0.03,0.03-0.05,0.04c-0.01,0.01-0.02,0.03-0.02,0.04s0,0.01,0.01,0.01
				s0.02,0.01,0.04,0.01c0.01,0,0.03,0,0.05,0s0.03,0,0.04,0c0.01,0,0.02,0,0.03,0s0.02,0,0.03,0C5.38,12.32,5.38,12.32,5.38,12.31z
				 M5.68,12.63c-0.02,0-0.04,0-0.06,0s-0.05-0.01-0.07-0.02s-0.03-0.02-0.05-0.03c-0.01-0.01-0.03-0.02-0.04-0.04
				c-0.02,0-0.04,0.01-0.06,0.01s-0.04,0-0.06,0c-0.04,0-0.08,0-0.12-0.01s-0.07-0.02-0.1-0.04c-0.03-0.02-0.05-0.04-0.07-0.07
				s-0.02-0.06-0.02-0.1c0-0.03,0.01-0.06,0.02-0.08c0.01-0.03,0.03-0.05,0.04-0.07c0.02-0.02,0.04-0.04,0.06-0.06
				s0.05-0.04,0.07-0.05c0.02-0.02,0.05-0.03,0.07-0.04s0.04-0.02,0.06-0.02c0,0,0-0.01,0-0.02s0-0.01,0-0.02s0-0.02,0-0.03
				c0-0.01,0-0.02,0-0.04l0.2-0.04c0.01,0.08,0.02,0.16,0.03,0.22c0.01,0.07,0.02,0.12,0.02,0.17c0.01,0.05,0.01,0.09,0.02,0.11
				c0,0.03,0.01,0.04,0.01,0.04c0.01,0.01,0.02,0.02,0.03,0.03c0.01,0.01,0.03,0.01,0.05,0.01H5.7v0.21H5.68V12.63z M4.99,12.27
				c0,0.03,0,0.07,0,0.11s0,0.08,0,0.11c0,0.04,0,0.08-0.01,0.11l-0.2,0.03c0-0.04,0-0.07,0.01-0.11c0-0.04,0-0.08,0.01-0.11
				c0-0.04,0-0.07,0-0.11s0-0.07,0-0.1c0-0.06-0.01-0.12-0.01-0.16c0-0.05,0-0.09-0.01-0.12c0-0.04,0-0.07-0.01-0.09
				c0-0.03,0-0.05-0.01-0.07c0-0.02-0.01-0.04-0.01-0.06s-0.01-0.04-0.01-0.06l0.2-0.07c0.01,0.06,0.02,0.12,0.02,0.18
				c0.01,0.06,0.01,0.12,0.01,0.17s0,0.1,0.01,0.15c0,0.05,0,0.09,0,0.12C4.99,12.2,4.99,12.23,4.99,12.27z M4.67,12.24
				c-0.02-0.01-0.04-0.02-0.06-0.02c-0.02-0.01-0.04-0.01-0.05-0.01c-0.03,0-0.05,0.01-0.08,0.02c-0.03,0.01-0.05,0.03-0.08,0.05
				c-0.02,0.02-0.05,0.04-0.06,0.07c-0.02,0.03-0.03,0.05-0.03,0.08c0,0.01,0,0.02,0.01,0.03c0.01,0.01,0.02,0.01,0.03,0.02
				s0.03,0.01,0.04,0.01c0.02,0,0.03,0.01,0.05,0.01c0.03,0.01,0.06,0.02,0.09,0.03c0.03,0.01,0.06,0.02,0.08,0.04
				c0.02,0.02,0.04,0.03,0.06,0.06c0.01,0.02,0.02,0.06,0.02,0.09c0,0.05-0.01,0.09-0.03,0.12c-0.02,0.04-0.04,0.07-0.07,0.09
				c-0.03,0.03-0.06,0.05-0.1,0.07c-0.04,0.02-0.08,0.03-0.12,0.05c-0.04,0.01-0.09,0.02-0.13,0.03c-0.04,0.01-0.09,0.01-0.13,0.01
				c-0.07,0-0.14-0.01-0.2-0.03c-0.06-0.02-0.11-0.05-0.16-0.08c-0.04-0.04-0.08-0.08-0.1-0.14c-0.02-0.05-0.04-0.12-0.04-0.19
				c0-0.01,0-0.02,0-0.03c0-0.01,0-0.02,0-0.03c0-0.05,0.01-0.09,0.02-0.14c0.01-0.04,0.02-0.08,0.03-0.12
				c0.01-0.03,0.02-0.06,0.03-0.08c0.01-0.02,0.01-0.03,0.02-0.04l0.16,0.07c-0.01,0.03-0.02,0.06-0.03,0.09s-0.02,0.06-0.03,0.09
				s-0.01,0.06-0.02,0.09c0,0.03-0.01,0.06-0.01,0.09c0,0.05,0.01,0.08,0.03,0.11s0.04,0.05,0.07,0.07c0.03,0.02,0.06,0.03,0.1,0.04
				s0.08,0.01,0.12,0.01c0.06,0,0.11,0,0.15-0.01c0.05-0.01,0.09-0.02,0.13-0.03c0.04-0.01,0.07-0.03,0.09-0.04
				c0.02-0.02,0.04-0.03,0.04-0.05c-0.03-0.01-0.06-0.01-0.09-0.02s-0.06-0.01-0.09-0.02s-0.06-0.02-0.08-0.03
				c-0.03-0.01-0.05-0.03-0.07-0.05s-0.04-0.04-0.05-0.07s-0.02-0.06-0.01-0.1c0-0.04,0.01-0.07,0.02-0.11
				c0.01-0.04,0.03-0.07,0.05-0.1c0.02-0.03,0.04-0.06,0.07-0.09s0.05-0.05,0.09-0.07c0.03-0.02,0.07-0.04,0.1-0.05
				C4.48,12.01,4.52,12,4.56,12c0.03,0,0.06,0,0.09,0.01s0.06,0.02,0.09,0.04L4.67,12.24z"/>
		</defs>
		<use xlink:href="#SVGID_5_"  style="overflow:visible;fill:#727272;enable-background:new    ;"/>
		<clipPath id="SVGID_6_">
			<use xlink:href="#SVGID_5_"  style="overflow:visible;enable-background:new    ;"/>
		</clipPath>
	</g>
</g>
</svg>
