<?xml version="1.0" encoding="utf-8"?>
<!-- Generator: Adobe Illustrator 24.2.3, SVG Export Plug-In . SVG Version: 6.00 Build 0)  -->
<svg version="1.1" id="Layer_1" xmlns="http://www.w3.org/2000/svg" xmlns:xlink="http://www.w3.org/1999/xlink" x="0px" y="0px"
	 viewBox="0 0 15.36 15.36" style="enable-background:new 0 0 15.36 15.36;" xml:space="preserve">
<g>
	<g>
		<defs>
			<path id="SVGID_1_" d="M7.5,5.35C7.45,5.3,7.2,5.3,7.08,5.41c-0.12,0.1-0.39,0.06-0.56-0.05c-0.17-0.12-0.39,0-0.39,0V2.58H7.5
				v2.66C7.51,5.24,7.54,5.39,7.5,5.35z M10.5,2.81c-0.04-0.05-0.09-0.04-0.15,0.02c-0.12,0.12-0.24,0.24-0.36,0.36
				c-0.07,0.07-0.12,0.07-0.19,0C9.76,3.15,9.73,3.12,9.69,3.08C9.67,3.06,9.64,3.05,9.61,3.03C9.58,3.05,9.54,3.07,9.54,3.09
				c-0.01,0.03,0,0.08,0.02,0.1C9.64,3.28,9.72,3.36,9.8,3.44c0.07,0.07,0.11,0.07,0.18,0c0.16-0.16,0.32-0.32,0.49-0.49
				C10.51,2.91,10.55,2.87,10.5,2.81z M10.67,3.09c-0.18,0.19-0.37,0.37-0.55,0.55c-0.13,0.13-0.32,0.12-0.45,0
				c-0.1-0.09-0.19-0.18-0.28-0.28c-0.13-0.13-0.13-0.33,0-0.46s0.32-0.13,0.46,0C9.86,2.92,9.88,2.93,9.9,2.95
				c0.1-0.11,0.2-0.22,0.31-0.32c0.18-0.17,0.46-0.1,0.53,0.14C10.78,2.89,10.76,3,10.67,3.09z M9.25,8.49c-0.03,0-0.05,0-0.08,0
				c-0.34,0-0.68,0-1.01,0c-0.34,0-0.69,0-1.03,0c-0.02,0-0.05,0-0.07,0C7,8.48,6.96,8.44,6.96,8.39c-0.01-0.06,0.02-0.1,0.08-0.12
				C7.07,8.26,7.1,8.26,7.13,8.26c0.69,0,1.37,0,2.06,0c0.03,0,0.06,0,0.09,0.01c0.06,0.02,0.08,0.07,0.07,0.12
				C9.34,8.45,9.31,8.48,9.25,8.49z M9.25,7.95c-0.03,0-0.05,0-0.08,0c-0.34,0-0.68,0-1.02,0s-0.68,0-1.02,0c-0.02,0-0.05,0-0.07,0
				C7,7.94,6.96,7.9,6.96,7.85c-0.01-0.06,0.02-0.1,0.08-0.12C7.07,7.72,7.1,7.72,7.13,7.72c0.69,0,1.37,0,2.06,0
				c0.03,0,0.06,0,0.09,0.01C9.34,7.75,9.36,7.8,9.35,7.85C9.34,7.91,9.31,7.94,9.25,7.95z M8.96,6.91c-0.01,0-0.02,0-0.02,0
				c-0.51,0-1.03,0-1.54,0c-0.03,0-0.06,0-0.09,0.01C7.23,6.93,7.19,6.99,7.19,7.06s0.06,0.12,0.13,0.13c0.03,0,0.05,0,0.08,0
				c0.25,0,0.51,0,0.76,0c0.27,0,0.53,0,0.8,0c0.12,0,0.18-0.05,0.18-0.14C9.14,6.96,9.07,6.91,8.96,6.91z M9.09,7.42
				C9.05,7.43,9,7.43,8.96,7.43c-0.26,0-0.53,0-0.79,0l0,0c-0.28,0-0.56,0-0.85,0c-0.16,0-0.3-0.11-0.35-0.25
				C6.92,7.03,6.96,6.86,7.09,6.76c0.06-0.04,0.13-0.09,0.2-0.09c0.59-0.01,1.17-0.01,1.76,0c0.18,0,0.32,0.16,0.34,0.34
				C9.39,7.2,9.27,7.37,9.09,7.42z"/>
		</defs>
		<use xlink:href="#SVGID_1_"  style="overflow:visible;fill:#FDC140;enable-background:new    ;"/>
		<clipPath id="SVGID_2_">
			<use xlink:href="#SVGID_1_"  style="overflow:visible;enable-background:new    ;"/>
		</clipPath>
	</g>
</g>
<g>
	<g>
		<defs>
			<path id="SVGID_3_" d="M7.63,3.7c0.3,0,0.59,0,0.89,0c0.01,0,0.03,0,0.04,0C8.6,3.56,8.58,3.46,8.49,3.35
				C8.34,3.16,8.34,3.03,8.48,2.84C8.51,2.8,8.53,2.76,8.56,2.72c-0.32,0-0.62,0-0.92,0C7.63,3.05,7.63,3.37,7.63,3.7z M6.25,3.69
				c0.38,0,0.76,0,1.13,0c0-0.33,0-0.65,0-0.97c-0.38,0-0.75,0-1.13,0C6.25,3.05,6.25,3.37,6.25,3.69z M6.01,2.72
				c-0.02,0-0.03,0-0.05,0c-0.43,0-0.85,0-1.28,0c-0.05,0-0.07,0.03-0.1,0.07C4.43,3.06,4.27,3.34,4.12,3.63
				C4.1,3.65,4.1,3.67,4.08,3.69c0.64,0,1.28,0,1.92,0C6.01,3.37,6.01,3.05,6.01,2.72z M3.62,4.03c0.26-0.47,0.53-0.95,0.79-1.42
				c0.05-0.09,0.14-0.13,0.24-0.13s0.2,0,0.29,0c1.17,0,2.34,0,3.5,0c0.03,0,0.07,0,0.11,0c0-0.02,0.01-0.04,0.01-0.06
				c0-0.15,0.07-0.24,0.2-0.31c0.01,0,0.02-0.01,0.03-0.01c0.15-0.04,0.23-0.14,0.28-0.28c0.08-0.19,0.2-0.25,0.4-0.22
				c0.13,0.02,0.24,0,0.34-0.09c0.17-0.14,0.31-0.14,0.48-0.01c0.11,0.09,0.23,0.12,0.37,0.09s0.27,0.02,0.35,0.15
				c0.04,0.07,0.04,0.13-0.02,0.18c-0.06,0.04-0.12,0.03-0.17-0.04c-0.03-0.05-0.08-0.06-0.13-0.05c-0.2,0.04-0.38,0-0.54-0.14
				c-0.06-0.06-0.13-0.06-0.19,0C9.81,1.83,9.63,1.87,9.43,1.83C9.36,1.81,9.31,1.84,9.28,1.91C9.27,1.94,9.26,1.96,9.25,1.99
				C9.2,2.13,9.1,2.23,8.95,2.28C8.79,2.35,8.79,2.35,8.81,2.52C8.84,2.7,8.78,2.85,8.67,2.98c-0.07,0.09-0.08,0.12,0,0.21
				c0.12,0.15,0.17,0.31,0.14,0.5C8.79,3.82,8.8,3.83,8.92,3.87C9.1,3.93,9.21,4.05,9.28,4.23c0.04,0.11,0.06,0.13,0.18,0.11
				C9.65,4.3,9.82,4.35,9.97,4.48c0.06,0.06,0.13,0.06,0.2,0c0.15-0.13,0.32-0.19,0.51-0.14c0.09,0.02,0.15-0.02,0.17-0.1
				c0.06-0.19,0.18-0.31,0.37-0.37c0.09-0.03,0.12-0.08,0.1-0.17c-0.04-0.2,0.01-0.37,0.14-0.52c0.06-0.06,0.05-0.13,0-0.19
				c-0.13-0.15-0.18-0.32-0.14-0.51c0.01-0.07,0-0.13-0.07-0.17c-0.06-0.03-0.06-0.1-0.03-0.15c0.03-0.06,0.09-0.07,0.15-0.04
				c0.11,0.05,0.18,0.14,0.19,0.26c0,0.07-0.01,0.15-0.01,0.22c0,0.05,0.01,0.11,0.04,0.16c0.05,0.09,0.11,0.17,0.16,0.26
				c0,0.05,0,0.1,0,0.14c-0.05,0.08-0.11,0.17-0.15,0.26c-0.03,0.05-0.03,0.12-0.04,0.18c0,0.03,0.01,0.07,0.01,0.1
				c0.01,0.21-0.04,0.32-0.24,0.39c-0.13,0.05-0.2,0.13-0.25,0.25c-0.09,0.21-0.21,0.28-0.43,0.24c-0.12-0.02-0.21,0-0.3,0.07
				c-0.09,0.06-0.19,0.1-0.29,0.15c-0.01-0.01-0.01-0.01-0.02-0.02c0,0.03,0,0.07,0,0.1c0,1.29,0,2.58,0,3.87
				c0,0.24-0.11,0.4-0.31,0.46C9.66,9.22,9.61,9.22,9.57,9.22c-0.36,0-0.72,0-1.08,0c-0.03,0-0.07,0-0.09-0.01
				C8.37,9.18,8.33,9.13,8.34,9.1c0-0.04,0.04-0.08,0.08-0.1c0.02-0.02,0.06-0.01,0.09-0.01c0.34,0,0.68,0,1.02,0
				c0.19,0,0.25-0.05,0.25-0.25c0-1.33,0-2.67,0-4c0-0.11-0.06-0.17-0.17-0.17c-0.07,0-0.13,0.01-0.2,0.02
				C9.26,4.6,9.15,4.53,9.08,4.39C9.07,4.38,9.07,4.36,9.06,4.35C9.02,4.21,8.93,4.13,8.8,4.08C8.74,4.06,8.68,4,8.63,3.96
				C8.61,3.95,8.59,3.94,8.57,3.94c-0.31,0-0.62,0-0.94,0c0,0.03,0,0.06,0,0.09c0,0.42,0,0.85,0,1.27c0,0.19-0.1,0.25-0.26,0.16
				C7.27,5.4,7.19,5.43,7.11,5.48c-0.07,0.04-0.15,0.09-0.24,0.1c-0.11,0.03-0.23,0-0.33-0.08s-0.2-0.1-0.31-0.03
				c-0.1,0.06-0.21-0.01-0.21-0.13c0-0.16,0-0.94,0-1.1c0-0.08,0.05-0.12,0.12-0.12c0.07,0,0.12,0.05,0.12,0.12
				c0,0.11,0,0.84,0,0.96c0.18-0.05,0.32,0.02,0.46,0.12c0.07,0.05,0.15,0.04,0.22-0.01C7.08,5.21,7.22,5.15,7.4,5.2
				c0-0.43,0-0.84,0-1.27c-0.38,0-0.75,0-1.14,0c0,0.11,0,0.22,0,0.33c0,0.06-0.02,0.11-0.08,0.14C6.09,4.44,6.01,4.38,6.01,4.29
				c0-0.12,0-0.23,0-0.36c-0.04,0-0.07,0-0.09,0c-0.61,0-1.22,0-1.82,0C3.92,3.93,3.86,4,3.86,4.17c0,1.53,0,3.06,0,4.58
				c0,0.17,0.06,0.23,0.23,0.23c1.24,0,2.49,0,3.73,0c0.03,0,0.06,0,0.09,0.01C7.98,9,8.02,9.05,8.01,9.11c0,0.06-0.04,0.1-0.1,0.11
				c-0.03,0-0.07,0-0.1,0c-1.22,0-2.44,0-3.66,0c-0.26,0-0.44-0.08-0.53-0.34C3.62,7.27,3.62,5.65,3.62,4.03z"/>
		</defs>
		<use xlink:href="#SVGID_3_"  style="overflow:visible;fill:#009FA9;enable-background:new    ;"/>
		<clipPath id="SVGID_4_">
			<use xlink:href="#SVGID_3_"  style="overflow:visible;enable-background:new    ;"/>
		</clipPath>
	</g>
</g>
<g>
	<g>
		<defs>
			<path id="SVGID_5_" d="M12.54,12.84l-0.14,0.14l-0.14-0.14l0.14-0.14L12.54,12.84z M12.61,12.47c-0.02,0.04-0.04,0.07-0.07,0.09
				s-0.07,0.04-0.11,0.05s-0.09,0.02-0.14,0.02h-0.1v-0.21h0.09c0.02,0,0.04,0,0.06,0s0.04-0.01,0.06-0.01
				c0.02-0.01,0.03-0.02,0.05-0.03c0.01-0.01,0.02-0.03,0.02-0.04s0-0.03-0.01-0.05s-0.01-0.04-0.02-0.07s-0.02-0.05-0.03-0.08
				c-0.01-0.03-0.03-0.05-0.04-0.08l0.19-0.09c0.01,0.03,0.02,0.06,0.04,0.09c0.01,0.03,0.02,0.06,0.03,0.09
				c0.01,0.03,0.02,0.06,0.02,0.09c0.01,0.03,0.01,0.06,0.01,0.09C12.64,12.39,12.63,12.43,12.61,12.47z M12.19,12.63
				c-0.04,0-0.08-0.01-0.12-0.02c-0.04-0.02-0.07-0.04-0.1-0.07c0,0,0,0.01-0.01,0.01l-0.01,0.01l0,0
				c-0.02,0.02-0.05,0.04-0.08,0.06c-0.03,0.01-0.06,0.02-0.1,0.02s-0.08-0.01-0.11-0.03c-0.03-0.02-0.06-0.04-0.08-0.07
				c-0.03,0.03-0.06,0.05-0.09,0.07c-0.03,0.02-0.07,0.03-0.11,0.03s-0.07-0.01-0.1-0.02c-0.03-0.02-0.06-0.04-0.08-0.07
				c-0.02,0.03-0.05,0.06-0.09,0.07c-0.03,0.01-0.08,0.02-0.13,0.02h-0.01v-0.21h0.01c0.02,0,0.04,0,0.06-0.01s0.04-0.02,0.06-0.04
				c0.02-0.02,0.03-0.05,0.05-0.09s0.03-0.09,0.04-0.15l0.17,0.02c0,0,0,0,0,0.01s-0.01,0.03-0.01,0.05s-0.01,0.04-0.01,0.07
				c0,0.02,0,0.05,0,0.07c0,0.02,0,0.04,0.01,0.06s0.01,0.03,0.03,0.03c0.01,0,0.03,0,0.04-0.01s0.02-0.02,0.04-0.04
				c0.01-0.02,0.02-0.04,0.03-0.06c0.01-0.02,0.02-0.05,0.03-0.07c0.01-0.02,0.01-0.05,0.02-0.07c0.01-0.02,0.01-0.04,0.01-0.06
				l0.17,0.02c0,0.01,0,0.03,0,0.04c0,0.02,0,0.04-0.01,0.06c0,0.02,0,0.04,0,0.06s0,0.04,0.01,0.06c0,0.02,0.01,0.03,0.02,0.04
				s0.02,0.02,0.04,0.02c0.01,0,0.03,0,0.04-0.01s0.02-0.02,0.03-0.04c0.01-0.02,0.01-0.03,0.02-0.05c0-0.02,0.01-0.04,0.01-0.06
				s0-0.04,0-0.06s0-0.04,0-0.05l0.18-0.02l0.02,0.18c0,0.02,0.01,0.04,0.02,0.05c0.01,0.02,0.02,0.03,0.03,0.04
				c0.01,0.01,0.02,0.02,0.04,0.02c0.01,0,0.03,0.01,0.04,0.01h0.02v0.21h-0.04V12.63z M10.73,11.86l-0.12,0.12l-0.13-0.13
				l0.12-0.13L10.73,11.86l0.12-0.13l0.13,0.13l-0.12,0.13L10.73,11.86z M10.99,12.63c-0.02,0-0.04,0-0.06-0.01
				c-0.02,0-0.04-0.01-0.06-0.01c-0.02-0.01-0.03-0.01-0.05-0.02c-0.01-0.01-0.03-0.02-0.04-0.03c-0.02,0.02-0.04,0.03-0.07,0.04
				s-0.05,0.02-0.08,0.02s-0.06,0.01-0.09,0.01s-0.06,0-0.09,0h-0.02v-0.21h0.02c0.03,0,0.06,0,0.08,0c0.02,0,0.05,0,0.06-0.01
				c0.02,0,0.03-0.01,0.05-0.02c0.01-0.01,0.02-0.02,0.03-0.03c0.01-0.01,0.02-0.03,0.02-0.05s0-0.03,0-0.05s-0.01-0.04-0.01-0.05
				c0-0.02-0.01-0.03-0.01-0.05l0.19-0.05c0.01,0.02,0.01,0.04,0.01,0.05c0,0.02,0.01,0.03,0.01,0.05s0.01,0.03,0.01,0.05
				s0,0.03,0.01,0.05c0,0.01,0,0.02,0.01,0.04c0,0.01,0.01,0.03,0.01,0.04c0.01,0.01,0.02,0.02,0.03,0.03
				c0.01,0.01,0.03,0.01,0.05,0.01h0.02v0.21L10.99,12.63L10.99,12.63z M10.13,12.31c0-0.01,0-0.02,0-0.03c0-0.01,0-0.03-0.01-0.05
				c0-0.02,0-0.04-0.01-0.06c-0.02,0.01-0.03,0.02-0.06,0.03c-0.02,0.01-0.04,0.02-0.06,0.04c-0.02,0.01-0.03,0.03-0.05,0.04
				c-0.01,0.01-0.02,0.03-0.02,0.04s0,0.01,0.01,0.01s0.02,0.01,0.04,0.01c0.01,0,0.03,0,0.05,0s0.03,0,0.04,0s0.02,0,0.03,0
				c0.01,0,0.02,0,0.03,0C10.14,12.32,10.13,12.32,10.13,12.31z M10.43,12.63c-0.02,0-0.04,0-0.06,0s-0.05-0.01-0.07-0.02
				c-0.02-0.01-0.03-0.02-0.05-0.03c-0.01-0.01-0.03-0.02-0.04-0.04c-0.02,0-0.04,0.01-0.06,0.01s-0.04,0-0.06,0
				c-0.04,0-0.08,0-0.12-0.01s-0.07-0.02-0.1-0.04c-0.03-0.02-0.05-0.04-0.07-0.07c-0.02-0.03-0.02-0.06-0.02-0.1
				c0-0.03,0.01-0.06,0.02-0.08c0.01-0.03,0.03-0.05,0.04-0.07c0.02-0.02,0.04-0.04,0.06-0.06s0.05-0.04,0.07-0.05
				c0.02-0.02,0.05-0.03,0.07-0.04c0.02-0.01,0.04-0.02,0.06-0.02c0,0,0-0.01,0-0.02s0-0.01,0-0.02s0-0.02,0-0.03
				c0-0.01,0-0.02,0-0.04l0.2-0.04c0.01,0.08,0.02,0.16,0.03,0.22c0.01,0.07,0.02,0.12,0.02,0.17c0.01,0.05,0.01,0.09,0.02,0.11
				c0,0.03,0.01,0.04,0.01,0.04c0.01,0.01,0.02,0.02,0.03,0.03c0.01,0.01,0.03,0.01,0.05,0.01h0.01v0.21h-0.04V12.63z M9.68,12.84
				l-0.14,0.14L9.4,12.84l0.14-0.14L9.68,12.84z M9.75,12.47c-0.02,0.04-0.04,0.07-0.07,0.09s-0.07,0.04-0.11,0.05
				s-0.09,0.02-0.14,0.02h-0.1v-0.21h0.09c0.02,0,0.04,0,0.06,0s0.04-0.01,0.06-0.01c0.02-0.01,0.03-0.02,0.05-0.03
				c0.01-0.01,0.02-0.03,0.02-0.04s0-0.03-0.01-0.05s-0.01-0.04-0.02-0.07s-0.02-0.05-0.03-0.08c-0.01-0.03-0.03-0.05-0.04-0.08
				l0.19-0.09c-0.01,0.03,0,0.06,0.01,0.09c0.01,0.03,0.02,0.06,0.03,0.09c0.01,0.03,0.02,0.06,0.02,0.09
				c0.01,0.03,0.01,0.06,0.01,0.09C9.78,12.39,9.77,12.43,9.75,12.47z M8.93,11.87l0.14-0.14l0.14,0.14l-0.14,0.14L8.93,11.87z
				 M9.33,12.63c-0.04,0-0.08-0.01-0.11-0.02s-0.05-0.03-0.08-0.05c-0.03,0.02-0.07,0.04-0.11,0.05C9,12.62,8.95,12.63,8.89,12.63
				H8.86v-0.21h0.02c0.06,0,0.1-0.01,0.14-0.03c0.03-0.02,0.05-0.05,0.05-0.09c0-0.01,0-0.03-0.01-0.05c0-0.02-0.01-0.05-0.02-0.09
				l0.18-0.04c0.01,0.02,0.01,0.04,0.02,0.06c0,0.02,0.01,0.04,0.01,0.05c0,0.02,0,0.03,0.01,0.04c0,0.01,0,0.03,0,0.04
				s0,0.03,0,0.04s0,0.03,0.01,0.04c0,0.01,0.01,0.02,0.02,0.03c0.01,0.01,0.02,0.01,0.04,0.01h0.01v0.21H9.33V12.63z M8.87,12.63
				c-0.03,0-0.05,0-0.07-0.01c-0.02,0-0.04-0.01-0.05-0.01C8.73,12.6,8.72,12.6,8.7,12.59c-0.01-0.01-0.02-0.02-0.03-0.03
				c-0.02,0.01-0.04,0.02-0.06,0.03c-0.02,0.01-0.04,0.02-0.06,0.02c-0.02,0.01-0.04,0.01-0.07,0.01c-0.02,0-0.05,0-0.08,0
				c-0.06,0-0.11-0.01-0.17-0.03c-0.05-0.02-0.1-0.06-0.15-0.1l0.12-0.17c0.02,0.02,0.04,0.04,0.06,0.05s0.04,0.02,0.06,0.03
				c0.02,0.01,0.04,0.01,0.05,0.01c0.02,0,0.03,0,0.05,0c0.01,0,0.02,0,0.04,0c0.01,0,0.03,0,0.04-0.01c0.01,0,0.03-0.01,0.04-0.01
				s0.02-0.01,0.03-0.02c-0.02-0.04-0.03-0.08-0.05-0.12s-0.04-0.09-0.06-0.13C8.43,12.08,8.41,12.04,8.4,12
				c-0.02-0.04-0.04-0.08-0.05-0.12l0.19-0.08l0.21,0.52c0.01,0.02,0.02,0.04,0.02,0.05c0.01,0.01,0.01,0.03,0.02,0.04
				s0.02,0.02,0.03,0.02c0.01,0,0.03,0.01,0.05,0.01h0.02v0.21H8.87V12.63z M8.04,12.24C8.02,12.23,8,12.23,7.99,12.22
				c-0.02-0.01-0.04-0.01-0.05-0.01c-0.03,0-0.05,0.01-0.08,0.02c-0.03,0.01-0.05,0.03-0.08,0.05c-0.02,0.02-0.05,0.04-0.06,0.07
				c-0.02,0.03-0.03,0.05-0.03,0.08c0,0.01,0,0.02,0.01,0.03c0.01,0.01,0.02,0.01,0.03,0.02s0.03,0.01,0.04,0.01
				c0.02,0,0.03,0.01,0.05,0.01c0.03,0.01,0.06,0.02,0.09,0.03c0.03,0.01,0.06,0.02,0.08,0.04c0.02,0.02,0.04,0.03,0.06,0.06
				c0.01,0.02,0.02,0.06,0.02,0.09c0,0.05-0.01,0.09-0.03,0.12C8.02,12.88,8,12.91,7.97,12.93c-0.03,0.03-0.06,0.05-0.1,0.07
				c-0.04,0.02-0.08,0.03-0.12,0.05c-0.04,0.01-0.09,0.02-0.13,0.03c-0.04,0.01-0.09,0.01-0.13,0.01c-0.07,0-0.14-0.01-0.2-0.03
				c-0.06-0.02-0.11-0.05-0.16-0.08c-0.04-0.04-0.08-0.08-0.1-0.14c-0.02-0.05-0.04-0.12-0.04-0.19c0-0.01,0-0.02,0-0.03
				c0-0.01,0-0.02,0-0.03c0-0.05,0.01-0.09,0.02-0.14c0.01-0.04,0.02-0.08,0.03-0.12c0.01-0.03,0.02-0.06,0.03-0.08
				c0.01-0.02,0.01-0.03,0.02-0.04l0.16,0.07c-0.01,0.03-0.02,0.06-0.03,0.09s-0.02,0.06-0.03,0.09s-0.01,0.06-0.02,0.09
				c0,0.03-0.01,0.06-0.01,0.09c0,0.05,0.01,0.08,0.03,0.11s0.04,0.05,0.07,0.07c0.03,0.02,0.06,0.03,0.1,0.04s0.08,0.01,0.12,0.01
				c0.06,0,0.11,0,0.15-0.01c0.05-0.01,0.09-0.02,0.13-0.03c0.04-0.01,0.07-0.03,0.09-0.04c0.02-0.02,0.04-0.03,0.04-0.05
				c-0.03-0.01-0.06-0.01-0.09-0.02s-0.06-0.01-0.09-0.02s-0.06-0.02-0.08-0.03c-0.03-0.01-0.05-0.03-0.07-0.05
				s-0.03-0.04-0.05-0.07c-0.01-0.03-0.01-0.06-0.01-0.1s0.01-0.07,0.02-0.11c0.01-0.04,0.03-0.07,0.05-0.1
				c0.02-0.03,0.04-0.06,0.07-0.09s0.05-0.05,0.09-0.07c0.03-0.02,0.07-0.04,0.1-0.05C7.86,12.01,7.89,12,7.93,12
				c0.03,0,0.06,0,0.09,0.01s0.06,0.02,0.09,0.04L8.04,12.24z M6.98,12.34l-0.09,0.04c-0.04,0.02-0.08,0.04-0.11,0.06
				c-0.04,0.02-0.08,0.04-0.11,0.06c-0.04,0.02-0.08,0.03-0.12,0.05s-0.08,0.03-0.13,0.04s-0.09,0.02-0.14,0.03
				c-0.05,0.01-0.1,0.01-0.16,0.01H5.97v-0.21h0.14c0.07,0,0.13,0,0.19-0.01s0.11-0.02,0.16-0.03c0.05-0.01,0.1-0.03,0.15-0.05
				s0.09-0.04,0.13-0.06c-0.03-0.01-0.06-0.02-0.09-0.03S6.6,12.21,6.57,12.2c-0.03-0.01-0.06-0.02-0.09-0.03
				c-0.03-0.01-0.06-0.01-0.09-0.01c-0.02,0-0.04,0.01-0.06,0.02s-0.04,0.02-0.05,0.04c-0.02,0.01-0.03,0.03-0.04,0.04
				c-0.01,0.01-0.02,0.02-0.02,0.03l-0.15-0.1c0.02-0.03,0.04-0.06,0.06-0.09s0.05-0.05,0.07-0.07c0.03-0.02,0.06-0.04,0.09-0.05
				s0.06-0.02,0.1-0.02c0.03,0,0.05,0,0.08,0.01c0.03,0.01,0.05,0.01,0.08,0.02c0.02,0,0.05,0.01,0.07,0.03
				c0.02,0.01,0.05,0.02,0.07,0.03c0.02,0.01,0.05,0.02,0.07,0.03c0.02,0.01,0.05,0.02,0.07,0.03c0.02,0.01,0.05,0.02,0.08,0.02
				c0.03,0.01,0.05,0.01,0.08,0.01L6.98,12.34z M5.99,12.63c-0.01,0-0.02,0-0.04,0s-0.03-0.01-0.05-0.01
				c-0.01,0.05-0.03,0.1-0.05,0.15c-0.03,0.05-0.06,0.09-0.1,0.14c-0.04,0.04-0.08,0.08-0.13,0.12s-0.1,0.07-0.16,0.1l-0.12-0.16
				c0.03-0.02,0.06-0.03,0.09-0.05s0.06-0.04,0.09-0.06s0.05-0.04,0.08-0.06c0.02-0.02,0.05-0.05,0.06-0.07
				c0.02-0.02,0.03-0.05,0.04-0.07c0.01-0.03,0.02-0.05,0.02-0.08c0-0.02,0-0.04-0.01-0.06c-0.01-0.03-0.01-0.05-0.02-0.08
				c-0.01-0.03-0.02-0.06-0.03-0.09s-0.02-0.06-0.04-0.08l0.19-0.08c0.02,0.05,0.03,0.1,0.05,0.13s0.03,0.06,0.05,0.08
				c0.01,0.02,0.03,0.04,0.04,0.04c0.01,0.01,0.03,0.01,0.04,0.01H6v0.21H5.99V12.63z M5.04,11.61l0.14-0.14l0.14,0.14l-0.14,0.14
				L5.04,11.61z M5.29,12.14c-0.01-0.02-0.01-0.04-0.02-0.05c-0.01-0.02-0.02-0.03-0.03-0.04s-0.03-0.02-0.05-0.02
				c-0.01,0-0.02,0-0.03,0.01s-0.02,0.01-0.03,0.03c-0.01,0.01-0.02,0.02-0.02,0.04c-0.01,0-0.01,0.01-0.01,0.03
				c0,0.01,0,0.02,0.01,0.03c0.01,0.01,0.02,0.01,0.03,0.02c0.01,0,0.03,0.01,0.04,0.01c0.02,0,0.03,0,0.05,0s0.03,0,0.04,0
				c0.01,0,0.02,0,0.03,0C5.3,12.18,5.3,12.16,5.29,12.14z M5.48,12.4c-0.01,0.04-0.03,0.07-0.06,0.1
				c-0.03,0.03-0.06,0.05-0.09,0.07c-0.04,0.02-0.07,0.03-0.12,0.04c-0.04,0.01-0.09,0.02-0.14,0.02c-0.05,0-0.1,0.01-0.15,0.01H4.9
				v-0.21h0.02c0.02,0,0.04,0,0.06,0s0.05,0,0.07,0c0.03,0,0.05,0,0.08,0c0.03,0,0.05-0.01,0.08-0.01c0.02,0,0.05-0.01,0.07-0.02
				s0.04-0.01,0.05-0.02c-0.06,0.01-0.11,0.01-0.16,0c-0.05,0-0.09-0.01-0.12-0.03c-0.03-0.02-0.06-0.04-0.08-0.07
				s-0.03-0.07-0.03-0.12c0-0.02,0-0.05,0.01-0.07c0-0.03,0.01-0.05,0.02-0.07c0.01-0.02,0.02-0.05,0.04-0.07
				c0.01-0.02,0.03-0.04,0.05-0.06s0.04-0.03,0.06-0.04s0.05-0.01,0.08-0.01c0.03,0,0.07,0.01,0.09,0.02
				c0.03,0.01,0.05,0.03,0.08,0.05c0.02,0.02,0.04,0.05,0.06,0.08s0.03,0.06,0.04,0.09c0.01,0.03,0.02,0.07,0.03,0.1
				c0.01,0.03,0.01,0.07,0.01,0.1C5.5,12.31,5.49,12.36,5.48,12.4z M4.61,12.31c0-0.01,0-0.02,0-0.03c0-0.01,0-0.03-0.01-0.05
				c0-0.02,0-0.04-0.01-0.06c-0.02,0.01-0.03,0.02-0.06,0.03c-0.02,0.01-0.04,0.02-0.06,0.04c-0.02,0.01-0.03,0.03-0.05,0.04
				c-0.01,0.01-0.02,0.03-0.02,0.04s0,0.01,0.01,0.01s0.02,0.01,0.04,0.01c0.01,0,0.03,0,0.05,0s0.03,0,0.04,0c0.01,0,0.02,0,0.03,0
				s0.02,0,0.03,0C4.61,12.32,4.61,12.32,4.61,12.31z M4.91,12.63c-0.02,0-0.04,0-0.06,0s-0.05-0.01-0.08-0.02
				c-0.02-0.01-0.03-0.02-0.05-0.03c-0.01-0.01-0.03-0.02-0.04-0.04c-0.02,0-0.04,0.01-0.06,0.01s-0.04,0-0.06,0
				c-0.04,0-0.08,0-0.12-0.01s-0.07-0.02-0.1-0.04c-0.03-0.02-0.05-0.04-0.07-0.07s-0.02-0.06-0.02-0.1c0-0.03,0.01-0.06,0.02-0.08
				c0.01-0.03,0.03-0.05,0.04-0.07c0.02-0.02,0.04-0.04,0.06-0.06s0.05-0.04,0.07-0.05c0.02-0.02,0.05-0.03,0.07-0.04
				s0.04-0.02,0.06-0.02c0,0,0-0.01,0-0.02s0-0.01,0-0.02s0-0.02,0-0.03c0-0.01,0-0.02,0-0.04l0.2-0.04
				c0.01,0.08,0.02,0.16,0.03,0.22c0.01,0.07,0.02,0.12,0.02,0.17c0.01,0.05,0.01,0.09,0.02,0.11c0,0.03,0.01,0.04,0.01,0.04
				c0.01,0.01,0.02,0.02,0.03,0.03c0.01,0.01,0.03,0.01,0.05,0.01h0.01v0.21H4.91V12.63z M4.23,12.27c0,0.03,0,0.07,0,0.11
				s0,0.08,0,0.11c0,0.04,0,0.08-0.01,0.11l-0.2,0.03c0-0.04,0-0.07,0.01-0.11c0-0.04,0-0.08,0.01-0.11c0-0.04,0-0.07,0-0.11
				s0-0.07,0-0.1c0-0.06,0-0.12-0.01-0.16c0-0.05,0-0.09-0.01-0.12c0-0.04,0-0.07-0.01-0.09c0-0.03,0-0.05-0.01-0.07
				c0-0.03,0-0.06-0.01-0.08c0-0.02-0.01-0.04-0.01-0.06l0.2-0.07c0.01,0.06,0.02,0.12,0.02,0.18c0.01,0.06,0.01,0.12,0.01,0.17
				s0,0.1,0.01,0.15c0,0.05,0,0.09,0,0.12C4.23,12.2,4.23,12.23,4.23,12.27z M3.91,12.24c-0.02-0.01-0.04-0.02-0.06-0.02
				c-0.02-0.01-0.04-0.01-0.05-0.01c-0.03,0-0.05,0.01-0.08,0.02s-0.05,0.03-0.08,0.05c-0.02,0.02-0.05,0.04-0.06,0.07
				c-0.02,0.03-0.03,0.05-0.03,0.08c0,0.01,0,0.02,0.01,0.03c0.01,0.01,0.02,0.01,0.03,0.02s0.03,0.01,0.04,0.01
				c0.02,0,0.03,0.01,0.05,0.01c0.03,0.01,0.06,0.02,0.09,0.03c0.03,0.01,0.06,0.02,0.08,0.04c0.02,0.02,0.04,0.03,0.06,0.06
				c0.01,0.02,0.02,0.06,0.02,0.09c0,0.05-0.01,0.09-0.03,0.12c-0.02,0.04-0.04,0.07-0.07,0.09C3.8,12.96,3.77,12.98,3.73,13
				c-0.04,0.02-0.08,0.03-0.12,0.05c-0.04,0.01-0.09,0.02-0.13,0.03c-0.04,0.01-0.09,0.01-0.13,0.01c-0.07,0-0.14-0.01-0.2-0.03
				c-0.06-0.02-0.11-0.05-0.16-0.08c-0.04-0.04-0.08-0.08-0.1-0.14c-0.03-0.05-0.04-0.12-0.04-0.19c0-0.01,0-0.02,0-0.03
				c0-0.01,0-0.02,0-0.03c0-0.05,0.01-0.09,0.02-0.14c0.01-0.04,0.02-0.08,0.03-0.12c0.01-0.03,0.02-0.06,0.03-0.08
				c0.01-0.02,0.01-0.03,0.02-0.04l0.16,0.07c-0.01,0.03-0.02,0.06-0.03,0.09s-0.02,0.06-0.03,0.09s-0.01,0.06-0.02,0.09
				c0,0.03-0.01,0.06-0.01,0.09c0,0.05,0.01,0.08,0.03,0.11s0.04,0.05,0.07,0.07c0.03,0.02,0.06,0.03,0.1,0.04s0.08,0.01,0.12,0.01
				c0.05,0,0.11,0,0.15-0.01c0.05-0.01,0.09-0.02,0.13-0.03c0.04-0.01,0.07-0.03,0.09-0.04c0.02-0.02,0.04-0.03,0.04-0.05
				c-0.03-0.01-0.06-0.01-0.09-0.02S3.6,12.71,3.57,12.7s-0.06-0.02-0.08-0.03c-0.03-0.01-0.05-0.03-0.07-0.05s-0.03-0.04-0.05-0.07
				c-0.01-0.03-0.02-0.06-0.01-0.1c0-0.04,0.01-0.07,0.02-0.11s0.03-0.07,0.05-0.1c0.02-0.03,0.04-0.06,0.07-0.09
				s0.05-0.05,0.09-0.07c0.03-0.02,0.06-0.04,0.1-0.05C3.72,12.01,3.76,12,3.8,12c0.03,0,0.06,0,0.09,0.01s0.06,0.02,0.09,0.04
				L3.91,12.24z"/>
		</defs>
		<use xlink:href="#SVGID_5_"  style="overflow:visible;fill:#727272;enable-background:new    ;"/>
		<clipPath id="SVGID_6_">
			<use xlink:href="#SVGID_5_"  style="overflow:visible;enable-background:new    ;"/>
		</clipPath>
	</g>
</g>
</svg>
