<?xml version="1.0" encoding="utf-8"?>
<!-- Generator: Adobe Illustrator 24.2.3, SVG Export Plug-In . SVG Version: 6.00 Build 0)  -->
<svg version="1.1" id="Layer_1" xmlns="http://www.w3.org/2000/svg" xmlns:xlink="http://www.w3.org/1999/xlink" x="0px" y="0px"
	 viewBox="0 0 15.36 15.36" style="enable-background:new 0 0 15.36 15.36;" xml:space="preserve">
<g>
	<g>
		<defs>
			<path id="SVGID_1_" d="M11.32,5.96c0,0-0.37,0.33-1.08,0.33S9.09,5.97,9.09,5.97s0,0.83,0.34,1.1s0.59,0.41,0.59,0.41
				S9.3,7.71,9.21,8.34c-0.1,0.63-0.09,0.88-0.09,0.88h2.36c0,0,0.01-0.72-0.27-1.17c-0.28-0.45-0.62-0.58-0.62-0.58
				s0.6-0.34,0.71-0.76C11.39,6.29,11.32,5.96,11.32,5.96z"/>
		</defs>
		<use xlink:href="#SVGID_1_"  style="overflow:visible;fill:#FEC13A;enable-background:new    ;"/>
		<clipPath id="SVGID_2_">
			<use xlink:href="#SVGID_1_"  style="overflow:visible;enable-background:new    ;"/>
		</clipPath>
	</g>
</g>
<g>
	<g>
		<defs>
			<path id="SVGID_3_" d="M10.26,2.82c-0.11,0-0.2-0.08-0.2-0.19c0-0.1,0.08-0.19,0.19-0.19s0.2,0.08,0.2,0.19
				S10.37,2.82,10.26,2.82z M4.06,2.82c-0.11,0-0.19-0.09-0.19-0.19c0-0.1,0.09-0.19,0.19-0.19c0.11,0,0.2,0.09,0.19,0.19
				C4.25,2.74,4.16,2.82,4.06,2.82z M7.17,1.69c-0.11,0-0.2-0.09-0.19-0.19c0-0.1,0.09-0.19,0.19-0.19c0.11,0,0.2,0.09,0.19,0.19
				C7.36,1.61,7.28,1.69,7.17,1.69z M7.17,9.5c-0.1,0-0.19-0.09-0.19-0.19c0-0.11,0.09-0.2,0.2-0.19c0.1,0,0.19,0.09,0.19,0.19
				C7.36,9.41,7.27,9.5,7.17,9.5z M8.38,8.06C8.31,8.12,8.24,8.17,8.17,8.22c-0.26,0.2-0.52,0.41-0.79,0.61
				c-0.16,0.13-0.26,0.13-0.42,0C6.5,8.48,6.04,8.14,5.6,7.77C4.78,7.09,4.39,6.21,4.38,5.15c0-0.07,0-0.13,0-0.2
				c0-0.11,0.06-0.17,0.14-0.17c0.09,0,0.13,0.06,0.14,0.16c0.01,0.2,0,0.39,0.02,0.58c0.1,0.85,0.5,1.54,1.17,2.07
				C6.27,7.95,6.7,8.28,7.13,8.61c0.01,0.01,0.03,0.02,0.05,0.03C7.49,8.4,7.8,8.16,8.11,7.92c0.03-0.03,0.07-0.06,0.1-0.08
				C8.28,7.8,8.36,7.81,8.4,7.87C8.44,7.94,8.44,8,8.38,8.06z M11.54,5.11c-0.02,0-0.04,0-0.06,0c-0.81,0-1.62,0-2.43,0
				c-0.04,0-0.09,0-0.13,0C8.84,5.12,8.77,5.17,8.74,5.25C8.69,5.39,8.79,5.52,8.96,5.52c0.43,0,0.87,0,1.3,0s0.86,0,1.28,0
				c0.15,0,0.25-0.08,0.25-0.2C11.79,5.19,11.7,5.11,11.54,5.11z M10.84,7.45c0.35,0.22,0.55,0.54,0.67,0.92c0-0.61,0-1.23,0-1.84
				C11.39,6.91,11.19,7.22,10.84,7.45z M9.29,6.4c0.09,0.42,0.3,0.74,0.73,0.89c0.08,0.03,0.12,0.08,0.12,0.16
				c0,0.09-0.04,0.14-0.12,0.17c-0.15,0.05-0.29,0.13-0.4,0.24C9.27,8.2,9.23,8.64,9.27,9.11c0.66,0,1.32,0,1.98,0
				c0-0.18,0.02-0.35,0-0.51c-0.07-0.46-0.28-0.82-0.75-0.99c-0.08-0.03-0.13-0.08-0.12-0.16c0-0.09,0.05-0.13,0.13-0.16
				c0.11-0.05,0.23-0.1,0.31-0.17c0.41-0.34,0.48-0.81,0.43-1.31c-0.66,0-1.32,0-2,0C9.26,6.01,9.25,6.21,9.29,6.4z M9.15,6.89
				C9.13,6.77,9.07,6.66,9.01,6.53c0,0.19,0,0.37,0,0.55c0.01,0,0.01,0.01,0.02,0.01C9.08,7.02,9.16,6.95,9.15,6.89z M9.04,7.51
				C9.02,7.53,9.01,7.56,9.01,7.59c0,0.25,0,0.51,0,0.76c0.13-0.38,0.33-0.68,0.66-0.9c-0.12-0.1-0.23-0.2-0.34-0.29
				C9.23,7.28,9.13,7.39,9.04,7.51z M8.92,9.8c0.03,0,0.06,0,0.09,0c0.75,0,1.49,0,2.24,0c0.11,0,0.22,0,0.33,0
				c0.09,0,0.16-0.04,0.2-0.13c0.06-0.14-0.05-0.27-0.22-0.27c-0.43,0-0.86,0-1.29,0c-0.36,0-0.72,0-1.08,0c-0.09,0-0.18,0-0.27,0
				c-0.11,0-0.19,0.09-0.19,0.2C8.73,9.7,8.81,9.79,8.92,9.8z M11.91,5.67c-0.1,0.08-0.12,0.16-0.12,0.27c0,1.04,0,2.08,0,3.13
				c0,0.06,0.01,0.1,0.07,0.14c0.16,0.11,0.23,0.26,0.21,0.45c-0.02,0.19-0.13,0.32-0.31,0.4c-0.03,0.01-0.05,0.02-0.08,0.03
				c-0.95,0-1.9,0-2.85,0c-0.01-0.01-0.02-0.01-0.03-0.02C8.5,9.97,8.38,9.7,8.48,9.41C8.49,9.39,8.49,9.37,8.5,9.35
				C8.48,9.36,8.48,9.36,8.47,9.36C8.42,9.4,8.38,9.44,8.33,9.48c-0.32,0.23-0.6,0.54-1.02,0.6c-0.09,0-0.19,0-0.28,0
				C6.77,10.03,6.55,9.9,6.35,9.74C5.92,9.39,5.47,9.06,5.04,8.72C3.88,7.81,3.3,6.62,3.29,5.15c-0.01-0.85,0-1.71,0-2.56
				c0-0.14,0-0.29,0-0.43c0-0.21,0.14-0.35,0.35-0.36c0.06,0,0.11,0,0.17,0c0.52,0,1.04-0.02,1.54-0.15c0.52-0.14,1-0.37,1.35-0.82
				C6.8,0.7,6.92,0.59,7.09,0.55c0.06,0,0.12,0,0.19,0c0.17,0.05,0.28,0.16,0.39,0.3C8,1.27,8.45,1.49,8.95,1.63
				C9.46,1.78,10,1.81,10.54,1.8c0.06,0,0.12,0,0.18,0c0.19,0.02,0.33,0.16,0.33,0.35c0,0.69,0,1.39,0,2.08
				c0,0.1-0.06,0.16-0.14,0.16c-0.09,0-0.14-0.06-0.14-0.17c0-0.66,0-1.33,0-1.99c0-0.15,0-0.16-0.16-0.16
				c-0.47,0-0.93-0.01-1.39-0.1C8.69,1.88,8.19,1.7,7.76,1.35C7.63,1.24,7.51,1.1,7.39,0.96c-0.14-0.17-0.3-0.18-0.44,0
				C6.55,1.49,6,1.76,5.38,1.93c-0.5,0.13-1.01,0.16-1.53,0.15c-0.06,0-0.12,0-0.19,0c-0.06,0-0.09,0.03-0.09,0.09
				c0,0.02,0,0.05,0,0.07c0,0.95,0,1.9,0,2.86c0,1.41,0.56,2.55,1.67,3.42C5.71,8.88,6.17,9.24,6.63,9.6c0.34,0.26,0.73,0.27,1.07,0
				c0.32-0.25,0.64-0.5,0.96-0.75c0.05-0.04,0.06-0.07,0.06-0.13c0-0.96,0-1.93,0-2.89c0-0.06-0.01-0.09-0.06-0.12
				C8.48,5.6,8.41,5.38,8.47,5.18c0.06-0.2,0.24-0.34,0.46-0.34c0.25,0,0.5,0,0.75,0c0-0.57,0-1.12,0-1.69
				C9.49,3.11,9.29,3.08,9.1,3.05C8.47,2.93,7.87,2.73,7.32,2.39c-0.1-0.06-0.19-0.07-0.29,0c-0.65,0.39-1.36,0.6-2.1,0.72
				c-0.08,0-0.17,0.02-0.27,0.03c0,0.04,0,0.07,0,0.1c0,0.32,0,0.65,0,0.97c0,0.04,0,0.09-0.02,0.12C4.61,4.36,4.55,4.4,4.51,4.4
				S4.42,4.35,4.39,4.31c-0.02-0.02-0.01-0.07-0.01-0.1c0-0.34,0-0.68,0-1.02c0-0.22,0.08-0.31,0.29-0.33
				C5.36,2.77,6.02,2.6,6.65,2.28c0.09-0.05,0.18-0.1,0.27-0.16c0.16-0.09,0.34-0.1,0.5,0c0.7,0.43,1.47,0.63,2.27,0.73
				c0.19,0.02,0.28,0.12,0.28,0.32c0,0.51,0,1.03,0,1.54c0,0.03,0,0.07,0,0.11c0.04,0,0.07,0,0.11,0c0.51,0,1.01,0,1.52,0
				c0.21,0,0.38,0.12,0.45,0.31C12.11,5.33,12.07,5.55,11.91,5.67z"/>
		</defs>
		<use xlink:href="#SVGID_3_"  style="overflow:visible;fill:#009FA9;enable-background:new    ;"/>
		<clipPath id="SVGID_4_">
			<use xlink:href="#SVGID_3_"  style="overflow:visible;enable-background:new    ;"/>
		</clipPath>
	</g>
</g>
<g>
	<g>
		<defs>
			<path id="SVGID_5_" d="M5.7,4.64c-0.11,0-0.17,0.06-0.16,0.14C5.55,4.83,5.57,4.87,5.6,4.91C5.9,5.3,6.2,5.7,6.5,6.09
				c0.12,0.15,0.19,0.15,0.31,0C7.37,5.38,7.93,4.66,8.5,3.95C8.59,3.84,8.6,3.76,8.52,3.7C8.44,3.65,8.36,3.67,8.27,3.79
				C7.78,4.41,7.29,5.03,6.8,5.65c-0.11,0.14-0.19,0.14-0.29,0c-0.23-0.3-0.47-0.61-0.7-0.91C5.77,4.69,5.72,4.66,5.7,4.64z
				 M6.66,5.38C6.89,5.09,7.12,4.8,7.34,4.51c0.25-0.32,0.5-0.63,0.75-0.95c0.17-0.21,0.46-0.22,0.64-0.04
				C8.88,3.68,8.89,3.9,8.75,4.08C8.47,4.45,8.18,4.81,7.9,5.17C7.6,5.55,7.3,5.92,7.01,6.3C6.8,6.56,6.5,6.56,6.3,6.3
				C5.98,5.88,5.66,5.46,5.34,5.04C5.21,4.88,5.22,4.66,5.35,4.51c0.12-0.15,0.34-0.2,0.51-0.1C5.92,4.44,5.98,4.5,6.03,4.56
				C6.22,4.8,6.4,5.05,6.59,5.3C6.61,5.32,6.63,5.35,6.66,5.38z"/>
		</defs>
		<use xlink:href="#SVGID_5_"  style="overflow:visible;fill:#FDC140;enable-background:new    ;"/>
		<clipPath id="SVGID_6_">
			<use xlink:href="#SVGID_5_"  style="overflow:visible;enable-background:new    ;"/>
		</clipPath>
	</g>
</g>
<g>
	<g>
		<defs>
			<path id="SVGID_7_" d="M9.94,14.1c0,0,0-0.01,0-0.02s0-0.02-0.01-0.02c0-0.01-0.01-0.02-0.01-0.03c0-0.01-0.01-0.02-0.02-0.03
				c-0.01,0-0.01-0.01-0.02-0.02s-0.02-0.01-0.03-0.01c-0.01,0-0.02,0-0.02,0.01c-0.01,0-0.02,0.01-0.02,0.02
				c-0.01,0.01-0.02,0.02-0.02,0.04c-0.01,0.02-0.02,0.03-0.03,0.06l-0.03,0.07c0.04,0.03,0.08,0.05,0.11,0.06
				c0.02,0.01,0.04,0.01,0.06,0.01c0.01,0,0.02,0,0.02,0c0.01,0,0.01-0.01,0.02-0.02s0.01-0.02,0.02-0.03
				c0-0.01,0.01-0.03,0.01-0.05c0-0.01,0-0.01,0-0.02C9.95,14.12,9.95,14.11,9.94,14.1z M10.07,14.18c0,0.02-0.01,0.05-0.02,0.07
				c-0.01,0.03-0.03,0.05-0.05,0.07c-0.02,0.02-0.04,0.03-0.07,0.04c-0.02,0-0.04,0.01-0.05,0.01s-0.02,0-0.04,0
				c-0.02,0-0.04-0.01-0.06-0.02c-0.03-0.01-0.05-0.02-0.07-0.04c-0.02-0.01-0.05-0.03-0.06-0.04c-0.02,0.02-0.03,0.04-0.05,0.06
				c-0.02,0.01-0.04,0.02-0.06,0.03c-0.02,0.01-0.04,0.01-0.07,0.02c-0.02,0-0.05,0-0.07,0H9.37v-0.13h0.01
				c0.04,0,0.07-0.01,0.1-0.02c0.03-0.01,0.05-0.03,0.07-0.05c0.02-0.02,0.03-0.04,0.05-0.07c0.01-0.03,0.03-0.05,0.04-0.08
				c0.01-0.02,0.02-0.05,0.04-0.07c0.01-0.02,0.03-0.04,0.04-0.06c0.02-0.02,0.04-0.03,0.06-0.05c0.02-0.01,0.05-0.02,0.08-0.02
				s0.06,0.01,0.09,0.02s0.05,0.03,0.07,0.05c0.02,0.02,0.03,0.05,0.04,0.08s0.02,0.06,0.02,0.09c0,0.01,0,0.03,0,0.05
				C10.07,14.14,10.07,14.16,10.07,14.18z M8.68,13.78l-0.11-0.11l0.11-0.11l0.11,0.11L8.68,13.78z M8.73,13.48l0.1-0.1l0.1,0.1
				l-0.1,0.1L8.73,13.48z M8.86,13.68l0.11-0.11l0.11,0.11l-0.11,0.11L8.86,13.68z M9.38,14.38c-0.02,0-0.04,0-0.07-0.01
				c-0.02-0.01-0.04-0.02-0.06-0.03c-0.02-0.01-0.04-0.03-0.05-0.04c-0.02-0.02-0.03-0.04-0.04-0.06c-0.01,0.02-0.02,0.04-0.03,0.06
				c-0.01,0.02-0.03,0.03-0.04,0.04c-0.02,0.01-0.03,0.02-0.05,0.03C9,14.38,8.98,14.38,8.96,14.38c-0.04,0-0.08-0.01-0.11-0.03
				c-0.03-0.02-0.06-0.05-0.07-0.09c-0.01,0.02-0.02,0.03-0.04,0.05c-0.01,0.02-0.03,0.03-0.05,0.04s-0.04,0.02-0.05,0.03
				c-0.02,0.01-0.04,0.01-0.06,0.01s-0.04,0-0.06-0.01s-0.04-0.01-0.05-0.03c-0.02-0.01-0.03-0.03-0.04-0.04
				c-0.01-0.02-0.02-0.03-0.03-0.05c-0.01,0.02-0.03,0.04-0.04,0.05c-0.02,0.02-0.03,0.03-0.05,0.04s-0.04,0.02-0.06,0.03
				c-0.02,0.01-0.04,0.01-0.07,0.01H8.16v-0.13h0.01c0.02,0,0.04,0,0.05-0.01c0.02-0.01,0.03-0.02,0.05-0.03
				c0.01-0.01,0.03-0.03,0.04-0.05s0.02-0.03,0.03-0.05c0.01-0.02,0.02-0.04,0.03-0.06C8.39,14.03,8.39,14.02,8.4,14
				c0-0.02,0.01-0.03,0.01-0.05c0-0.01,0.01-0.03,0.01-0.04l0.12,0.03c0,0.01-0.01,0.03-0.01,0.05s-0.01,0.04-0.01,0.06
				s-0.01,0.05-0.01,0.07c0,0.01,0,0.02,0,0.02c0,0.01,0,0.03,0,0.04c0,0.02,0.01,0.03,0.02,0.04s0.02,0.02,0.04,0.02
				c0.02,0,0.04-0.01,0.06-0.02s0.03-0.03,0.05-0.05c0.01-0.02,0.02-0.04,0.03-0.07c0.01-0.02,0.02-0.05,0.02-0.08
				c0.01-0.03,0.01-0.05,0.02-0.08c0-0.02,0.01-0.05,0.01-0.07l0.13,0.02c0,0.02,0,0.03-0.01,0.06c0,0.02-0.01,0.04-0.01,0.07
				c0,0.02,0,0.03,0,0.05c0,0.01,0,0.02,0,0.03c0,0.02,0,0.03,0.01,0.05s0.02,0.03,0.03,0.05c0.01,0.01,0.03,0.02,0.05,0.02
				S9,14.21,9.01,14.2s0.02-0.03,0.03-0.05c0.01-0.02,0.01-0.04,0.02-0.07c0-0.03,0.01-0.05,0.01-0.08c0-0.01,0-0.03,0-0.04
				s0-0.03,0-0.04c0-0.02,0-0.03,0-0.05l0.13-0.01c0,0.01,0,0.03,0,0.04s0,0.03,0.01,0.05c0,0.02,0.01,0.03,0.01,0.05
				s0.01,0.04,0.02,0.06c0.02,0.05,0.04,0.09,0.06,0.12c0.03,0.03,0.05,0.04,0.08,0.04H9.4v0.13H9.38V14.38z M7.67,13.66l0.11-0.11
				l0.11,0.11l-0.11,0.11L7.67,13.66z M7.94,13.66l0.11-0.11l0.11,0.11l-0.11,0.11L7.94,13.66z M8.18,14.38
				c-0.04,0-0.08-0.01-0.11-0.02C8.04,14.34,8.02,14.33,8,14.3c-0.01,0.01-0.03,0.03-0.05,0.04s-0.04,0.02-0.06,0.03
				c-0.02,0.01-0.05,0.01-0.08,0.02c-0.03,0-0.07,0-0.11,0H7.6v-0.13h0.1c0.04,0,0.08,0,0.11-0.01s0.05-0.02,0.07-0.03
				c0.02-0.01,0.03-0.03,0.04-0.05c0.01-0.02,0.01-0.04,0.01-0.07c0-0.02,0-0.05-0.01-0.08c0-0.03-0.01-0.05-0.02-0.09l0.12-0.03
				c0,0.02,0.01,0.03,0.01,0.04s0.01,0.03,0.01,0.04c0,0.02,0,0.03,0.01,0.05c0,0.02,0,0.04,0.01,0.06c0,0.02,0,0.03,0.01,0.05
				c0,0.02,0.01,0.03,0.02,0.05s0.02,0.03,0.03,0.04c0.01,0.01,0.03,0.02,0.05,0.02h0.01L8.18,14.38
				C8.18,14.38,8.18,14.38,8.18,14.38z M7.62,14.38c-0.01,0-0.01,0-0.02,0c-0.01,0-0.02,0-0.03-0.01c-0.01,0-0.02-0.01-0.04-0.01
				c-0.01-0.01-0.02-0.02-0.03-0.03l0,0c0,0.06-0.01,0.11-0.04,0.16c-0.02,0.05-0.06,0.1-0.1,0.14s-0.09,0.09-0.14,0.12
				c-0.05,0.04-0.1,0.07-0.16,0.1L7,14.74c0.03-0.02,0.06-0.03,0.09-0.05s0.06-0.04,0.09-0.06s0.05-0.05,0.08-0.07
				c0.02-0.02,0.04-0.05,0.06-0.08s0.03-0.05,0.04-0.08c0.01-0.02,0.01-0.04,0.01-0.06c0-0.01,0-0.02,0-0.02
				c0-0.02-0.01-0.05-0.01-0.08c-0.01-0.03-0.01-0.06-0.02-0.08c-0.01-0.03-0.01-0.05-0.02-0.08c-0.01-0.02-0.01-0.04-0.02-0.06
				l0.12-0.04c0.02,0.05,0.03,0.09,0.05,0.13s0.03,0.06,0.05,0.09c0.02,0.02,0.03,0.04,0.05,0.05s0.04,0.02,0.06,0.02h0.01v0.13
				H7.62V14.38z M7.13,14.6l-0.11,0.1l-0.11-0.11l0.11-0.11L7.13,14.6z M6.86,14.59l-0.1,0.11l-0.11-0.11l0.11-0.11L6.86,14.59z
				 M7.06,14.3c-0.02,0.02-0.05,0.03-0.07,0.05c-0.03,0.01-0.06,0.02-0.09,0.02s-0.07,0.01-0.1,0.01H6.63v-0.13h0.13
				c0.03,0,0.05,0,0.07,0s0.05,0,0.07-0.01c0.02,0,0.04-0.01,0.05-0.02c0.02-0.01,0.03-0.02,0.04-0.04c0-0.01,0.01-0.02,0.01-0.03
				c0-0.01,0-0.02,0-0.03c0-0.01,0-0.01,0-0.03c0-0.01,0-0.03-0.01-0.05c0-0.02-0.01-0.04-0.02-0.06l-0.06-0.14l0.12-0.06
				c0,0,0,0,0.01,0.01c0,0.01,0.01,0.02,0.02,0.03c0.01,0.01,0.01,0.03,0.02,0.05c0.01,0.02,0.01,0.04,0.02,0.06
				c0.02,0.06,0.03,0.12,0.03,0.17c0,0.01,0,0.01,0,0.02c0,0.04-0.01,0.07-0.02,0.1C7.09,14.26,7.08,14.28,7.06,14.3z M6.65,14.38
				c-0.05,0-0.09-0.01-0.12-0.02c-0.03-0.01-0.06-0.03-0.09-0.05c-0.01-0.01-0.03-0.03-0.03-0.05c-0.01-0.02-0.01-0.03-0.02-0.05
				c0-0.02-0.01-0.03-0.01-0.05c0-0.01,0-0.03,0-0.04c0,0,0-0.01,0-0.03c0-0.02,0-0.04,0-0.07s0-0.06,0-0.09s0-0.07,0-0.11
				s0-0.08,0-0.12s0-0.08,0-0.12s0-0.07-0.01-0.1c0-0.03-0.01-0.06-0.01-0.08l0.13-0.02c0,0.02,0.01,0.05,0.01,0.08
				s0.01,0.07,0.01,0.1c0,0.04,0,0.08,0,0.12s0,0.08,0,0.12v0.33c0,0.01,0,0.03,0,0.04s0.01,0.02,0.02,0.03
				c0.01,0.01,0.02,0.02,0.04,0.02c0.02,0.01,0.04,0.01,0.07,0.01h0.01v0.13l0,0V14.38z M5.79,13.96l0.11-0.11L6,13.96l-0.1,0.11
				L5.79,13.96z M6.35,14.43c0,0.03-0.01,0.07-0.03,0.11c-0.02,0.05-0.04,0.09-0.07,0.13s-0.06,0.06-0.1,0.09
				c-0.04,0.02-0.08,0.04-0.13,0.05s-0.1,0.02-0.15,0.02c-0.06,0-0.11-0.01-0.16-0.02c-0.05-0.01-0.09-0.03-0.13-0.06
				c-0.04-0.03-0.07-0.06-0.09-0.1s-0.04-0.09-0.05-0.15c0-0.03-0.01-0.05-0.01-0.08c0-0.02,0-0.04,0-0.07s0.01-0.06,0.02-0.1
				c0.01-0.04,0.02-0.08,0.04-0.11c0.02-0.04,0.03-0.07,0.05-0.1l0.1,0.08c-0.01,0.01-0.01,0.02-0.02,0.03
				C5.61,14.16,5.6,14.18,5.6,14.2c-0.01,0.02-0.02,0.04-0.02,0.06c-0.01,0.02-0.01,0.05-0.02,0.07c0,0.03-0.01,0.05-0.01,0.08
				c0,0.01,0,0.01,0,0.02c0,0.02,0,0.04,0,0.06c0,0.01,0.01,0.03,0.01,0.04c0.01,0.02,0.01,0.03,0.02,0.05
				c0.01,0.02,0.02,0.03,0.04,0.05s0.03,0.03,0.06,0.04c0.02,0.01,0.05,0.02,0.08,0.03c0.03,0.01,0.06,0.01,0.1,0.01
				c0.05,0,0.09,0,0.12-0.01c0.04-0.01,0.07-0.02,0.1-0.04c0.03-0.02,0.05-0.04,0.07-0.06s0.03-0.05,0.04-0.08
				c0.01-0.04,0.02-0.07,0.02-0.11V14.4c0-0.03,0-0.07-0.01-0.1c-0.01-0.03-0.01-0.06-0.02-0.1c-0.01-0.03-0.02-0.06-0.03-0.08
				c-0.01-0.02-0.02-0.04-0.03-0.05s-0.01-0.02-0.01-0.02l0.11-0.07c0,0,0.01,0.01,0.02,0.03c0.01,0.02,0.02,0.04,0.03,0.06
				c0.01,0.03,0.02,0.06,0.04,0.09c0.01,0.04,0.02,0.08,0.03,0.12c0.01,0.03,0.01,0.07,0.01,0.1C6.35,14.39,6.35,14.41,6.35,14.43z
				 M12.81,13.03l-0.12,0.12l-0.12-0.12l0.12-0.12L12.81,13.03z M12.69,12.84l0.12-0.12l0.13,0.12l-0.12,0.13L12.69,12.84
				l-0.12,0.13l-0.13-0.13l0.12-0.13L12.69,12.84z M12.93,12.47c-0.02,0.04-0.05,0.07-0.08,0.09s-0.07,0.04-0.12,0.05
				s-0.09,0.02-0.15,0.02h-0.15v-0.21h0.16c0.02,0,0.04,0,0.06,0s0.04-0.01,0.06-0.01c0.02-0.01,0.04-0.02,0.05-0.03
				c0.01-0.01,0.02-0.03,0.02-0.05c0-0.01,0-0.03-0.01-0.05s-0.01-0.04-0.02-0.07s-0.02-0.05-0.03-0.08
				c-0.01-0.03-0.03-0.05-0.04-0.08l0.19-0.09c0.01,0.03,0.02,0.06,0.04,0.09c0.01,0.03,0.02,0.06,0.03,0.09
				c0.01,0.03,0.02,0.06,0.02,0.09c0.01,0.03,0.01,0.06,0.01,0.09C12.96,12.39,12.95,12.43,12.93,12.47z M11.77,11.68l0.12-0.12
				L12,11.68l-0.12,0.12L11.77,11.68z M11.89,11.87l-0.12,0.12l-0.13-0.13l0.12-0.13L11.89,11.87l0.12-0.13l0.13,0.13L12.02,12
				L11.89,11.87z M12.43,12.63c-0.04,0-0.08-0.01-0.12-0.02c-0.04-0.02-0.07-0.04-0.1-0.07l-0.01,0.01c0,0,0,0.01-0.01,0.01l0,0
				c-0.02,0.02-0.05,0.04-0.08,0.06c-0.03,0.01-0.06,0.02-0.1,0.02s-0.08-0.01-0.11-0.03c-0.03-0.02-0.06-0.04-0.08-0.07
				c-0.03,0.03-0.06,0.05-0.09,0.07c-0.03,0.02-0.07,0.03-0.11,0.03s-0.07-0.01-0.1-0.02c-0.03-0.02-0.06-0.04-0.08-0.07
				c-0.02,0.03-0.05,0.06-0.09,0.07c-0.03,0.01-0.08,0.02-0.13,0.02h-0.01v-0.21h0.01c0.02,0,0.04,0,0.06-0.01s0.04-0.02,0.06-0.04
				c0.02-0.02,0.03-0.05,0.05-0.09s0.03-0.09,0.04-0.15l0.17,0.02c0,0,0,0,0,0.01s-0.01,0.03-0.01,0.05s-0.01,0.04-0.01,0.07
				c0,0.02,0,0.05,0,0.07c0,0.02,0,0.04,0.01,0.06c0,0.02,0.01,0.03,0.03,0.03c0.01,0,0.03,0,0.04-0.01s0.02-0.02,0.04-0.04
				c0.01-0.02,0.02-0.04,0.03-0.06c0.01-0.02,0.02-0.05,0.03-0.07c0.01-0.02,0.01-0.05,0.02-0.07c0.01-0.02,0.01-0.04,0.01-0.06
				l0.17,0.02c0,0.01,0,0.03,0,0.04c0,0.02,0,0.04-0.01,0.06c0,0.02,0,0.04,0,0.06s0,0.04,0.01,0.06c0,0.02,0.01,0.03,0.02,0.04
				s0.02,0.02,0.04,0.02c0.01,0,0.03,0,0.04-0.01s0.02-0.02,0.03-0.04c0.01-0.02,0.01-0.03,0.02-0.05c0-0.02,0.01-0.04,0.01-0.06
				s0-0.04,0-0.06s0-0.04,0-0.05l0.18-0.02l0.02,0.18c0,0.02,0.01,0.04,0.02,0.05c0.01,0.02,0.02,0.03,0.03,0.04
				c0.01,0.01,0.02,0.02,0.04,0.02c0.01,0,0.03,0.01,0.04,0.01h0.02v0.21h-0.04V12.63z M10.98,11.86l-0.12,0.12l-0.13-0.13
				l0.12-0.13L10.98,11.86l0.12-0.13l0.13,0.13l-0.12,0.13L10.98,11.86z M11.24,12.63c-0.02,0-0.04,0-0.06-0.01
				c-0.02,0-0.04-0.01-0.06-0.01c-0.02-0.01-0.03-0.01-0.05-0.02s-0.03-0.02-0.04-0.03c-0.02,0.02-0.04,0.03-0.07,0.04
				s-0.05,0.02-0.08,0.02s-0.06,0.01-0.09,0.01s-0.06,0-0.09,0h-0.02v-0.21h0.02c0.03,0,0.06,0,0.08,0c0.02,0,0.05,0,0.06-0.01
				c0.02,0,0.03-0.01,0.05-0.02c0.01-0.01,0.02-0.02,0.03-0.03c0.01-0.01,0.02-0.03,0.02-0.05s0-0.03,0-0.05s-0.01-0.04-0.01-0.05
				c0-0.02-0.01-0.03-0.01-0.05l0.19-0.05c0,0.02,0.01,0.04,0.01,0.05c0,0.02,0.01,0.03,0.01,0.05s0.01,0.03,0.01,0.05
				s0,0.03,0.01,0.05c0,0.01,0,0.02,0.01,0.04c0,0.01,0.01,0.03,0.01,0.04c0.01,0.01,0.02,0.02,0.03,0.03
				c0.01,0.01,0.03,0.01,0.05,0.01h0.02v0.21L11.24,12.63L11.24,12.63z M10.37,12.81l0.12-0.12l0.13,0.13l-0.12,0.13L10.37,12.81
				l-0.12,0.13l-0.13-0.13l0.12-0.13L10.37,12.81z M10.68,12.63c-0.02,0-0.04,0-0.06-0.01c-0.02,0-0.04-0.01-0.06-0.01
				c-0.02-0.01-0.03-0.01-0.05-0.02s-0.03-0.02-0.04-0.03c-0.02,0.02-0.04,0.03-0.07,0.04s-0.05,0.02-0.08,0.02
				s-0.06,0.01-0.09,0.01s-0.06,0-0.09,0h-0.02v-0.21h0.02c0.03,0,0.06,0,0.08,0c0.02,0,0.05,0,0.06-0.01
				c0.02,0,0.03-0.01,0.05-0.02c0.01-0.01,0.02-0.02,0.03-0.03c0.01-0.01,0.02-0.03,0.02-0.05s0-0.03,0-0.05s-0.01-0.04-0.01-0.05
				c0-0.02-0.01-0.03-0.01-0.05l0.19-0.05c0.01,0.02,0.01,0.04,0.01,0.05c0,0.02,0.01,0.03,0.01,0.05s0.01,0.03,0.01,0.05
				s0,0.03,0.01,0.05c0,0.01,0,0.02,0.01,0.04c0,0.01,0.01,0.03,0.01,0.04c0.01,0.01,0.02,0.02,0.03,0.03
				c0.01,0.01,0.03,0.01,0.05,0.01h0.02v0.21L10.68,12.63L10.68,12.63z M10.04,12.84L9.9,12.98l-0.14-0.14L9.9,12.7L10.04,12.84z
				 M10.13,12.63c-0.04,0-0.08-0.01-0.11-0.02s-0.05-0.03-0.08-0.05c-0.03,0.02-0.07,0.04-0.11,0.05s-0.09,0.02-0.15,0.02H9.66
				v-0.21h0.02c0.06,0,0.1-0.01,0.14-0.03c0.03-0.02,0.05-0.05,0.05-0.09c0-0.01,0-0.03-0.01-0.05c0-0.02-0.01-0.05-0.02-0.09
				l0.18-0.04c0.01,0.02,0.01,0.04,0.02,0.06c0,0.02,0.01,0.04,0.01,0.05c0,0.02,0,0.03,0.01,0.04c0,0.01,0,0.03,0,0.04
				s0,0.03,0,0.04s0,0.03,0.01,0.04c0,0.01,0.01,0.02,0.02,0.03c0.01,0.01,0.02,0.01,0.04,0.01h0.01v0.21h-0.01V12.63z M9.67,12.63
				c-0.05,0-0.1-0.01-0.14-0.02s-0.07-0.03-0.09-0.06c-0.02-0.03-0.04-0.06-0.05-0.09s-0.02-0.07-0.02-0.11c0-0.02,0-0.05,0-0.08
				s0-0.07,0-0.11s0-0.09,0-0.13c0-0.05,0-0.1,0-0.15c0-0.05,0-0.1-0.01-0.14c0-0.05-0.01-0.08-0.02-0.12l0.19-0.06
				c0.01,0.03,0.01,0.06,0.01,0.1s0.01,0.08,0.01,0.12s0,0.09,0,0.13s0,0.08,0,0.12c0,0.03,0,0.07,0,0.1c0,0.04,0,0.07,0,0.1
				c0,0.03,0,0.06,0,0.09s0.01,0.05,0.01,0.06s0.01,0.02,0.01,0.02c0.01,0.01,0.01,0.01,0.02,0.01s0.02,0,0.03,0
				c0.01,0,0.02,0,0.03,0h0.02L9.67,12.63L9.67,12.63L9.67,12.63z M8.94,11.76l0.14-0.14l0.14,0.14L9.08,11.9L8.94,11.76z
				 M9.31,12.47c-0.02,0.04-0.04,0.07-0.07,0.09s-0.07,0.04-0.11,0.05s-0.09,0.02-0.14,0.02h-0.1v-0.21h0.09c0.02,0,0.04,0,0.06,0
				s0.04-0.01,0.06-0.01c0.02-0.01,0.03-0.02,0.05-0.03c0.01-0.01,0.02-0.03,0.02-0.04s0-0.03-0.01-0.05s-0.01-0.04-0.02-0.07
				s-0.02-0.05-0.03-0.08c-0.01-0.03-0.03-0.05-0.04-0.08l0.19-0.09C9.27,12,9.28,12.03,9.3,12.06c0.01,0.03,0.02,0.06,0.03,0.09
				c0.01,0.03,0.02,0.06,0.02,0.09c0.01,0.03,0.01,0.06,0.01,0.09C9.33,12.39,9.32,12.43,9.31,12.47z M8.82,12.63
				c0.01,0.02,0.02,0.03,0.02,0.05s0.01,0.03,0.01,0.05c0,0.04-0.01,0.08-0.03,0.11c-0.02,0.03-0.04,0.06-0.07,0.08
				c-0.03,0.02-0.06,0.04-0.1,0.06C8.61,13,8.57,13.01,8.53,13.02s-0.08,0.02-0.11,0.02c-0.04,0-0.07,0.01-0.1,0.01
				c-0.05,0-0.09,0-0.14-0.01c-0.04-0.01-0.08-0.02-0.12-0.03c-0.04-0.01-0.07-0.03-0.1-0.06c-0.03-0.02-0.06-0.05-0.08-0.08
				s-0.04-0.07-0.05-0.11s-0.02-0.09-0.02-0.14c0-0.04,0-0.07,0-0.11c0-0.03,0.01-0.07,0.02-0.1c0.01-0.03,0.02-0.07,0.03-0.1
				c0.01-0.03,0.02-0.07,0.04-0.11l0.17,0.07c-0.01,0.03-0.02,0.06-0.03,0.08C8.01,12.38,8.01,12.4,8,12.42s-0.01,0.04-0.01,0.06
				s-0.01,0.03-0.01,0.05s0,0.03,0,0.05s0,0.03,0,0.05c0,0.03,0.01,0.06,0.02,0.08c0.01,0.02,0.02,0.04,0.04,0.06
				s0.04,0.03,0.06,0.04s0.05,0.02,0.07,0.02c0.03,0.01,0.05,0.01,0.08,0.01s0.05,0,0.07,0c0.01,0,0.03,0,0.05,0s0.05,0,0.07-0.01
				c0.03,0,0.05-0.01,0.08-0.01c0.03-0.01,0.05-0.01,0.08-0.02c0.02-0.01,0.04-0.02,0.06-0.03c0.01-0.01,0.02-0.03,0.02-0.04
				c-0.03-0.02-0.07-0.04-0.13-0.06c-0.05-0.02-0.12-0.03-0.2-0.04l0.03-0.2H8.9v0.21H8.82V12.63z M7.68,12.35
				c0-0.03-0.01-0.05-0.02-0.07c-0.01-0.02-0.02-0.04-0.04-0.05c-0.01-0.01-0.03-0.02-0.05-0.02c-0.01,0-0.02,0-0.03,0.01
				s-0.02,0.02-0.03,0.04c-0.01,0.01-0.02,0.03-0.03,0.05s-0.01,0.03-0.02,0.05c0.01,0.01,0.03,0.02,0.05,0.03
				c0.02,0.01,0.04,0.01,0.06,0.02s0.04,0.01,0.06,0.01s0.04,0.01,0.06,0.01C7.69,12.4,7.68,12.37,7.68,12.35z M7.82,12.47
				c-0.01,0.03-0.03,0.06-0.04,0.08c-0.02,0.02-0.04,0.04-0.06,0.05s-0.04,0.02-0.07,0.02s-0.05,0-0.08-0.01
				c-0.03-0.01-0.05-0.01-0.08-0.02c-0.03-0.01-0.05-0.02-0.08-0.03c-0.02-0.01-0.05-0.02-0.07-0.04c-0.01,0.02-0.03,0.03-0.05,0.05
				c-0.02,0.01-0.03,0.02-0.05,0.03c-0.02,0.01-0.04,0.01-0.06,0.02c-0.02,0-0.04,0-0.07,0H7.09v-0.21h0.03
				c0.03,0,0.05-0.01,0.07-0.02s0.04-0.03,0.05-0.05s0.03-0.04,0.04-0.06c0.01-0.02,0.02-0.04,0.03-0.07s0.03-0.05,0.04-0.08
				c0.02-0.03,0.03-0.05,0.06-0.07c0.02-0.02,0.05-0.04,0.07-0.05c0.03-0.01,0.06-0.02,0.09-0.02c0.05,0,0.08,0.01,0.12,0.03
				c0.03,0.02,0.06,0.05,0.08,0.08s0.04,0.07,0.05,0.12c0.01,0.04,0.02,0.09,0.02,0.13C7.84,12.41,7.84,12.44,7.82,12.47z
				 M7.1,12.63c-0.05,0-0.1-0.01-0.14-0.02s-0.07-0.03-0.09-0.06c-0.02-0.03-0.04-0.06-0.05-0.09S6.8,12.39,6.8,12.35
				c0-0.02,0-0.05,0-0.08s0-0.07,0-0.11s0-0.09,0-0.13c0-0.05,0-0.1,0-0.15c0-0.05,0-0.1-0.01-0.14c0-0.05-0.01-0.08-0.02-0.12
				l0.19-0.06c0.01,0.03,0.01,0.06,0.01,0.1s0.01,0.08,0.01,0.12s0,0.09,0,0.13s0,0.08,0,0.12c0,0.03,0,0.07,0,0.1
				c0,0.04,0,0.07,0,0.1c0,0.03,0,0.06,0,0.09s0.01,0.05,0.01,0.06S7,12.4,7,12.4c0.01,0.01,0.01,0.01,0.02,0.01
				c0.01,0,0.02,0,0.03,0s0.02,0,0.03,0H7.1L7.1,12.63L7.1,12.63L7.1,12.63z M6.75,12.47c-0.02,0.03-0.04,0.06-0.07,0.09
				c-0.03,0.02-0.06,0.04-0.1,0.06c-0.04,0.01-0.08,0.02-0.13,0.02H6.44H6.43c-0.03,0-0.06,0-0.09-0.01s-0.06-0.01-0.09-0.03
				c-0.03-0.01-0.06-0.02-0.09-0.04c-0.03-0.01-0.06-0.03-0.08-0.04l0.09-0.2c0.02,0.01,0.04,0.02,0.06,0.03
				c0.02,0.01,0.05,0.02,0.08,0.03c0.03,0.01,0.05,0.02,0.08,0.02c0.02,0.01,0.05,0.01,0.06,0.01c0.01,0,0.02,0,0.04,0
				s0.03,0,0.05-0.01c0.02,0,0.03-0.01,0.05-0.02c0.01-0.01,0.02-0.02,0.02-0.04c0-0.02,0-0.04-0.02-0.06
				c-0.01-0.02-0.03-0.04-0.04-0.07c-0.02-0.02-0.04-0.05-0.06-0.07c-0.02-0.02-0.05-0.05-0.07-0.07c-0.03-0.02-0.05-0.04-0.08-0.06
				c-0.04,0-0.06-0.01-0.08-0.02l0.11-0.17c0.04,0.03,0.08,0.06,0.12,0.1S6.57,12,6.6,12.04s0.06,0.08,0.09,0.13
				c0.03,0.04,0.04,0.09,0.06,0.13c0,0.01,0.01,0.03,0.01,0.04s0,0.03,0,0.04C6.77,12.4,6.76,12.44,6.75,12.47z M6.1,12.38
				c0,0.04,0,0.08,0,0.11c0,0.04,0,0.08-0.01,0.11l-0.2,0.03c0-0.04,0-0.07,0.01-0.11c0-0.04,0-0.08,0.01-0.11c0-0.04,0-0.07,0-0.11
				s0-0.07,0-0.1c0-0.06,0-0.12-0.01-0.16c0-0.05,0-0.09-0.01-0.12c0-0.04,0-0.07-0.01-0.09c0-0.03,0-0.05-0.01-0.07
				c0-0.02-0.01-0.04-0.01-0.06s-0.01-0.04-0.01-0.06l0.2-0.07c0.01,0.06,0.02,0.12,0.02,0.18c0.01,0.06,0.01,0.12,0.01,0.17
				s0,0.1,0.01,0.15c0,0.05,0,0.09,0,0.12s0,0.06,0,0.1C6.1,12.3,6.1,12.34,6.1,12.38z M5.68,12.28c-0.01-0.02-0.02-0.04-0.04-0.05
				s-0.03-0.02-0.05-0.02s-0.03,0-0.04,0.01c-0.01,0.01-0.02,0.02-0.03,0.03c-0.01,0.01-0.02,0.03-0.03,0.04s-0.01,0.03-0.02,0.04
				c0.01,0.01,0.03,0.02,0.05,0.02c0.02,0.01,0.04,0.02,0.06,0.02c0.02,0.01,0.04,0.01,0.06,0.02s0.04,0.01,0.05,0.01
				c0.01-0.02,0.01-0.04,0.01-0.06C5.69,12.32,5.69,12.3,5.68,12.28z M5.85,12.38c0,0.02-0.01,0.04-0.02,0.06
				c-0.01,0.02-0.02,0.04-0.03,0.06s-0.02,0.04-0.04,0.05c-0.01,0.02-0.03,0.03-0.04,0.04C5.7,12.6,5.69,12.6,5.67,12.6
				c-0.03,0-0.07,0-0.1-0.01c-0.04-0.01-0.07-0.02-0.11-0.03c-0.03-0.01-0.07-0.03-0.1-0.04c-0.03-0.02-0.05-0.03-0.07-0.04
				c0,0.05,0.01,0.1,0.01,0.15c0,0.05,0.01,0.1,0.01,0.15c0,0.05,0.01,0.1,0.01,0.15c0,0.05,0.01,0.1,0.01,0.15l-0.2,0.03L5.1,12.47
				c0,0,0-0.01,0-0.02s0-0.03,0.01-0.04c0-0.02,0.01-0.03,0.02-0.05c0.01-0.02,0.02-0.03,0.04-0.05c0.01-0.01,0.02-0.01,0.03-0.02
				c0.01,0,0.02-0.01,0.03-0.01s0.02,0,0.03,0s0.02,0,0.03,0c0.01-0.03,0.03-0.06,0.05-0.1c0.02-0.03,0.04-0.06,0.06-0.09
				s0.05-0.05,0.08-0.06C5.52,12.01,5.56,12,5.59,12s0.05,0.01,0.08,0.01c0.02,0.01,0.05,0.02,0.06,0.04
				c0.02,0.02,0.04,0.03,0.05,0.05c0.02,0.02,0.03,0.04,0.04,0.07c0.01,0.02,0.02,0.05,0.02,0.07c0,0.03,0.01,0.05,0.01,0.08
				C5.86,12.34,5.85,12.36,5.85,12.38z M5.13,12.27c0,0.03,0,0.07,0,0.11s0,0.08,0,0.11c0,0.04,0,0.08-0.01,0.11l-0.2,0.03
				c0-0.04,0-0.07,0.01-0.11c0-0.04,0-0.08,0.01-0.11c0-0.04,0-0.07,0-0.11s0-0.07,0-0.1c0-0.06,0-0.12-0.01-0.16
				c0-0.05,0-0.09-0.01-0.12c0-0.04,0-0.07-0.01-0.09c0-0.03,0-0.05-0.01-0.07c0-0.02-0.01-0.04-0.01-0.06s-0.01-0.04-0.01-0.06
				l0.2-0.07c0.01,0.06,0.02,0.12,0.02,0.18c0.01,0.06,0.01,0.12,0.01,0.17s0,0.1,0.01,0.15c0,0.05,0,0.09,0,0.12
				C5.13,12.2,5.13,12.23,5.13,12.27z M4.87,12.43c-0.01,0.04-0.03,0.08-0.06,0.11c-0.03,0.03-0.06,0.05-0.1,0.07
				c-0.04,0.02-0.08,0.02-0.14,0.02H4.53v-0.21h0.05c0.02,0,0.04,0,0.05-0.01c0.01,0,0.03-0.01,0.03-0.02
				c0.01-0.01,0.01-0.02,0.02-0.04c0-0.02,0-0.04,0-0.06c0,0,0-0.02,0-0.04c0-0.02,0-0.05,0-0.08s0-0.07-0.01-0.11
				c0-0.04-0.01-0.08-0.01-0.12s-0.01-0.08-0.01-0.12s-0.01-0.07-0.01-0.11c0-0.03,0-0.05-0.01-0.07c0-0.02,0-0.02,0-0.02l0.21-0.05
				c0,0.01,0,0.02,0,0.05s0.01,0.07,0.01,0.13s0.01,0.13,0.01,0.22s0.01,0.2,0.01,0.33C4.89,12.34,4.89,12.39,4.87,12.43z
				 M4.32,12.16c-0.01,0-0.03-0.01-0.04-0.01c-0.01,0-0.03,0-0.04,0c-0.01,0-0.03,0-0.04,0c-0.01,0-0.02,0-0.04,0s-0.03,0-0.05,0.01
				c-0.02,0-0.03,0.01-0.05,0.01s-0.03,0.01-0.04,0.01l0.18,0.15c0.01-0.01,0.03-0.02,0.04-0.03c0.02-0.01,0.03-0.03,0.05-0.04
				s0.03-0.03,0.04-0.04c0.01-0.01,0.02-0.03,0.03-0.04C4.35,12.16,4.33,12.16,4.32,12.16z M4.54,12.63c-0.03,0-0.07,0-0.1,0
				c-0.03,0-0.06-0.01-0.09-0.01c-0.03-0.01-0.06-0.01-0.08-0.03c-0.03-0.01-0.05-0.03-0.07-0.04c-0.03,0.02-0.05,0.03-0.08,0.04
				c-0.03,0.01-0.06,0.02-0.1,0.03c-0.03,0.01-0.07,0.01-0.1,0.01s-0.07,0-0.1,0H3.79v-0.21h0.02c0.03,0,0.06,0,0.09,0
				s0.06-0.01,0.09-0.02c-0.02-0.01-0.03-0.03-0.04-0.04s-0.03-0.03-0.04-0.04s-0.03-0.03-0.04-0.04c-0.02-0.02-0.03-0.03-0.05-0.05
				l0.01-0.15c0.03-0.02,0.05-0.04,0.08-0.06s0.05-0.03,0.08-0.04c0.03-0.01,0.05-0.02,0.08-0.02c0.02-0.01,0.05-0.01,0.07-0.01
				c0.01,0,0.02,0,0.03,0s0.02,0,0.03,0c0.03,0,0.07,0,0.1,0.01c0.04,0.01,0.07,0.02,0.1,0.03c0.03,0.01,0.05,0.03,0.06,0.04
				s0.03,0.03,0.04,0.04c0.01,0.01,0.02,0.03,0.02,0.04s0.01,0.03,0.01,0.03c0,0.02,0,0.04-0.01,0.06s-0.02,0.05-0.03,0.07
				c-0.01,0.02-0.03,0.05-0.04,0.07c-0.02,0.02-0.03,0.04-0.05,0.06c0.02,0,0.05,0.01,0.07,0.01s0.05,0,0.07,0h0.02v0.21L4.54,12.63
				z M3.59,12.35c-0.01-0.03-0.02-0.05-0.02-0.07c-0.01-0.02-0.02-0.04-0.03-0.05s-0.03-0.02-0.04-0.02s-0.02,0-0.03,0.01
				s-0.02,0.02-0.03,0.03C3.41,12.27,3.4,12.28,3.4,12.3c-0.01,0.02-0.01,0.03-0.02,0.05c0.01,0.01,0.03,0.02,0.05,0.03
				c0.02,0.01,0.04,0.02,0.06,0.02c0.02,0.01,0.04,0.01,0.06,0.02c0.02,0,0.04,0.01,0.06,0.01C3.6,12.4,3.59,12.37,3.59,12.35z
				 M3.79,12.63c-0.03,0-0.05-0.01-0.07-0.02s-0.04-0.03-0.05-0.04c-0.01,0.01-0.01,0.01-0.02,0.02s-0.01,0.01-0.02,0.02
				s-0.01,0.01-0.02,0.01s-0.01,0.01-0.02,0.01c-0.02,0-0.05,0-0.08,0s-0.06-0.01-0.09-0.02s-0.06-0.02-0.09-0.03
				c-0.03-0.01-0.05-0.03-0.08-0.04c-0.03,0.03-0.06,0.06-0.1,0.08c-0.04,0.02-0.08,0.02-0.13,0.02h0.01v-0.21h0.01
				c0.03,0,0.05-0.01,0.07-0.02s0.04-0.03,0.05-0.04c0.01-0.02,0.03-0.04,0.04-0.06s0.02-0.04,0.03-0.07s0.03-0.05,0.04-0.08
				c0.02-0.03,0.03-0.05,0.06-0.07c0.02-0.02,0.05-0.04,0.07-0.05c0.03-0.01,0.06-0.02,0.09-0.02c0.04,0,0.08,0.01,0.11,0.02
				c0.03,0.02,0.05,0.04,0.07,0.06c0.02,0.03,0.04,0.06,0.05,0.09s0.02,0.07,0.03,0.11s0.01,0.07,0.02,0.09s0.01,0.03,0.02,0.03
				h0.02v0.21C3.81,12.63,3.79,12.63,3.79,12.63z M3.04,12.63c-0.01,0-0.02,0-0.04,0s-0.03-0.01-0.05-0.01
				c-0.01,0.05-0.03,0.1-0.05,0.15c-0.03,0.05-0.06,0.09-0.1,0.14c-0.04,0.04-0.08,0.08-0.13,0.12c-0.05,0.04-0.1,0.07-0.16,0.1
				l-0.12-0.16c0.03-0.02,0.06-0.03,0.09-0.05s0.06-0.04,0.09-0.06s0.05-0.04,0.08-0.06c0.02-0.02,0.05-0.05,0.06-0.07
				c0.02-0.02,0.03-0.05,0.04-0.07c0.01-0.03,0.02-0.05,0.02-0.08c0-0.02,0-0.04-0.01-0.06c-0.01-0.03-0.01-0.05-0.02-0.08
				s-0.02-0.06-0.03-0.09s-0.02-0.06-0.03-0.08l0.19-0.08c0.02,0.05,0.03,0.1,0.05,0.13s0.03,0.06,0.05,0.08
				c0-0.01,0.01,0,0.03,0.01c0.01,0.01,0.03,0.01,0.04,0.01h0.02v0.21H3.04z"/>
		</defs>
		<use xlink:href="#SVGID_7_"  style="overflow:visible;fill:#727272;enable-background:new    ;"/>
		<clipPath id="SVGID_8_">
			<use xlink:href="#SVGID_7_"  style="overflow:visible;enable-background:new    ;"/>
		</clipPath>
	</g>
</g>
</svg>
