<?xml version="1.0" encoding="utf-8"?>
<!-- Generator: Adobe Illustrator 24.2.3, SVG Export Plug-In . SVG Version: 6.00 Build 0)  -->
<svg version="1.1" id="Layer_1" xmlns="http://www.w3.org/2000/svg" xmlns:xlink="http://www.w3.org/1999/xlink" x="0px" y="0px"
	 viewBox="0 0 15.36 15.36" style="enable-background:new 0 0 15.36 15.36;" xml:space="preserve">
<style type="text/css">
	.st0{fill:#009FA9;}
	.st1{fill:#FDC140;}
	.st2{fill:#F9C340;}
	.st3{fill:#727272;}
</style>
<g>
	<g>
		<g>
			<path id="SVGID_1_" class="st0" d="M9.79,7.16C9.7,7.28,9.59,7.4,9.49,7.52c-0.08,0.1-0.18,0.11-0.25,0.04
				c-0.08-0.07-0.08-0.16,0-0.25c0.7-0.78,1.14-1.68,1.35-2.7c0.09-0.42,0.16-1.14,0.13-1.45c-0.77-0.22-1.26-0.7-1.39-1.52
				c-1.1,0-2.21,0-3.32,0c-0.13,0.82-0.62,1.3-1.39,1.52c0,0.15-0.01,0.31,0,0.46c0.03,0.72,0.15,1.42,0.4,2.1
				C5.24,6.3,5.55,6.83,5.96,7.31C6.01,7.34,6.05,7.4,6.04,7.45c0,0.05-0.05,0.11-0.1,0.14C5.87,7.63,5.8,7.6,5.76,7.54
				C5.6,7.34,5.44,7.15,5.3,6.94C4.82,6.22,4.54,5.42,4.4,4.56c-0.08-0.5-0.11-1-0.1-1.51c0-0.14,0.04-0.18,0.18-0.21
				C5.05,2.71,5.47,2.4,5.64,1.82c0.04-0.1,0.04-0.22,0.05-0.33C5.7,1.35,5.75,1.3,5.89,1.3c1.19,0,2.39,0,3.58,0
				c0.14,0,0.2,0.05,0.2,0.18c0,0.68,0.51,1.23,1.22,1.36c0.13,0.02,0.17,0.07,0.18,0.19C11.08,4.54,10.71,5.94,9.79,7.16z
				 M11.39,8.53c-0.09-0.11-0.09-0.17,0-0.27c0.17-0.21,0.34-0.42,0.51-0.63c0.02-0.02,0.03-0.05,0.05-0.07c-0.44,0-0.86,0-1.28,0
				c0,0.57,0,1.13,0,1.69c0.43,0,0.85,0,1.29,0C11.77,9,11.58,8.77,11.39,8.53z M10.34,8.3c-1.77,0-3.53,0-5.3,0
				c0,0.5,0,0.99,0,1.48c1.77,0,3.53,0,5.3,0C10.34,9.28,10.34,8.79,10.34,8.3z M4.69,7.56c-0.44,0-0.86,0-1.29,0
				c0.2,0.24,0.38,0.47,0.57,0.7c0.09,0.11,0.09,0.17,0,0.27C3.79,8.75,3.62,8.96,3.45,9.18C3.43,9.2,3.42,9.22,3.4,9.24
				c0.44,0,0.86,0,1.29,0C4.69,8.68,4.69,8.12,4.69,7.56z M12.48,9.46c-0.04,0.1-0.12,0.12-0.22,0.12c-0.49,0-0.98,0-1.47,0
				c-0.04,0-0.07,0-0.11,0c0,0.11-0.01,0.2,0,0.28c0.01,0.11-0.02,0.19-0.11,0.25c-1.92,0-3.84,0-5.75,0
				C4.73,10.07,4.7,9.99,4.71,9.9c0-0.1,0-0.21,0-0.32c-0.05,0-0.09,0-0.13,0c-0.49,0-0.99,0-1.48,0c-0.1,0-0.18-0.03-0.22-0.12
				c0-0.03,0-0.06,0-0.09C3.14,9.04,3.39,8.72,3.65,8.4C3.4,8.07,3.14,7.75,2.88,7.43c0-0.03,0-0.06,0-0.09
				C2.93,7.25,3,7.22,3.1,7.22c0.57,0,1.14,0,1.71,0c0.16,0,0.21,0.05,0.21,0.21c0,0.17,0,0.34,0,0.52c1.78,0,3.54,0,5.32,0
				c0-0.1,0-0.19,0-0.29c0-0.08,0-0.17,0-0.25c0-0.13,0.06-0.18,0.18-0.18c0.23,0,0.46,0,0.69,0c0.35,0,0.7,0,1.05,0
				c0.1,0,0.17,0.03,0.21,0.12c0,0.03,0,0.06,0,0.09c-0.26,0.32-0.51,0.64-0.77,0.96c0.26,0.33,0.51,0.65,0.77,0.97
				C12.48,9.39,12.48,9.43,12.48,9.46z"/>
		</g>
	</g>
</g>
<g>
	<g>
		<g>
			<defs>
				<path id="SVGID_2_" d="M11.78,1.88c0,0.04,0,0.09,0,0.13c-0.01,0.09-0.08,0.15-0.16,0.15s-0.16-0.06-0.16-0.15
					c-0.01-0.09-0.01-0.19,0-0.28c0.01-0.09,0.08-0.15,0.16-0.15c0.09,0,0.15,0.06,0.16,0.16C11.78,1.79,11.78,1.83,11.78,1.88
					L11.78,1.88z M3.95,2C3.94,2.09,3.87,2.16,3.79,2.16S3.63,2.1,3.62,2.01c-0.01-0.1-0.01-0.19,0-0.29
					C3.63,1.64,3.7,1.59,3.78,1.59s0.15,0.06,0.16,0.15c0.01,0.05,0,0.09,0,0.14l0,0C3.95,1.92,3.95,1.96,3.95,2z M12.3,1.5
					c-0.05,0.01-0.1,0.01-0.15,0.01c-0.05,0-0.1,0-0.15-0.01c-0.08-0.01-0.14-0.08-0.14-0.16c0-0.08,0.06-0.15,0.14-0.16
					c0.1-0.01,0.19-0.01,0.29,0c0.08,0.01,0.14,0.08,0.14,0.16C12.44,1.41,12.38,1.48,12.3,1.5z M4.46,1.5c-0.1,0.01-0.2,0.01-0.3,0
					C4.08,1.49,4.03,1.41,4.03,1.33c0-0.08,0.06-0.15,0.15-0.16c0.05-0.01,0.09,0,0.14,0l0,0c0.05,0,0.09,0,0.14,0
					c0.09,0.01,0.15,0.08,0.15,0.16C4.6,1.42,4.55,1.49,4.46,1.5z M3.4,1.5c-0.1,0.01-0.2,0.01-0.3,0C3.02,1.49,2.96,1.41,2.96,1.33
					c0-0.08,0.06-0.15,0.15-0.16c0.05-0.01,0.09,0,0.14,0l0,0c0.05,0,0.09,0,0.14,0c0.09,0.01,0.15,0.08,0.15,0.16
					C3.54,1.42,3.48,1.49,3.4,1.5z M11.23,1.5c-0.1,0.01-0.2,0.01-0.3,0c-0.08-0.01-0.14-0.08-0.14-0.16c0-0.08,0.06-0.15,0.15-0.16
					c0.05,0,0.09,0,0.14,0l0,0c0.05,0,0.09,0,0.14,0c0.08,0.01,0.14,0.08,0.14,0.16C11.37,1.41,11.32,1.49,11.23,1.5z M7.69,3.57
					c-0.84,0-1.52,0.67-1.53,1.5c0,0.84,0.67,1.52,1.51,1.52s1.52-0.67,1.52-1.51C9.2,4.25,8.52,3.57,7.69,3.57z M7.67,6.92
					c-1.01,0-1.84-0.83-1.83-1.85c0-1.02,0.84-1.84,1.85-1.84c1.02,0.01,1.84,0.84,1.84,1.85C9.52,6.1,8.69,6.93,7.67,6.92z
					 M11.78,0.92c-0.01,0.1-0.07,0.17-0.16,0.17s-0.16-0.06-0.16-0.16c-0.01-0.09-0.01-0.18,0-0.26c0.01-0.06,0.07-0.1,0.1-0.16
					c0.04,0,0.08,0,0.11,0c0.08,0.05,0.12,0.13,0.11,0.23C11.78,0.8,11.78,0.86,11.78,0.92z M3.95,0.92c0,0.1-0.07,0.17-0.16,0.17
					c-0.09,0-0.16-0.06-0.16-0.16c-0.01-0.09-0.01-0.18,0-0.26c0.01-0.06,0.07-0.1,0.1-0.16c0.04,0,0.08,0,0.11,0
					c0.08,0.05,0.12,0.13,0.11,0.23C3.94,0.8,3.95,0.86,3.95,0.92z"/>
			</defs>
			<use xlink:href="#SVGID_2_"  style="overflow:visible;fill:#FDC140;enable-background:new    ;"/>
			<clipPath id="SVGID_3_">
				<use xlink:href="#SVGID_2_"  style="overflow:visible;enable-background:new    ;"/>
			</clipPath>
		</g>
	</g>
</g>
<g>
	<g>
		<g>
			<path id="SVGID_7_" class="st1" d="M5.53,8.93c0.03,0,0.06-0.01,0.08-0.03c0.02-0.02,0.03-0.05,0.03-0.08S5.63,8.77,5.61,8.75
				C5.6,8.74,5.57,8.73,5.54,8.73c-0.02,0-0.04,0-0.05,0.01c-0.01,0-0.03,0.01-0.03,0.02C5.45,8.77,5.44,8.78,5.43,8.8
				c0,0.01-0.01,0.03-0.02,0.04c0,0.01-0.01,0.01-0.02,0.02c-0.01,0-0.02,0.01-0.03,0.01S5.33,8.86,5.32,8.85
				c0-0.01-0.01-0.03-0.01-0.05s0.01-0.04,0.02-0.06C5.34,8.72,5.36,8.7,5.38,8.68s0.05-0.03,0.08-0.04
				c0.03-0.01,0.07-0.02,0.1-0.02c0.03,0,0.06,0,0.09,0.01C5.67,8.65,5.7,8.67,5.72,8.68C5.74,8.7,5.75,8.72,5.77,8.74
				s0.02,0.05,0.02,0.07c0,0.03-0.01,0.06-0.02,0.09C5.74,8.93,5.72,8.95,5.69,8.98c0.03,0.01,0.05,0.03,0.07,0.05
				S5.79,9.07,5.8,9.09s0.01,0.05,0.01,0.07c0,0.03-0.01,0.06-0.02,0.09c0,0.03-0.02,0.06-0.05,0.08C5.72,9.35,5.69,9.37,5.66,9.39
				C5.62,9.4,5.58,9.4,5.54,9.4s-0.07,0-0.11-0.02C5.4,9.37,5.37,9.35,5.35,9.33C5.33,9.3,5.31,9.28,5.3,9.26
				C5.29,9.23,5.29,9.21,5.29,9.2c0-0.02,0.01-0.04,0.02-0.05c0.01-0.01,0.03-0.02,0.05-0.02c0.01,0,0.02,0,0.03,0.01
				c0,0.01,0.01,0.01,0.01,0.02c0.02,0.05,0.04,0.08,0.06,0.11C5.48,9.29,5.51,9.3,5.55,9.3c0.02,0,0.04-0.01,0.06-0.02
				s0.04-0.03,0.05-0.05C5.67,9.22,5.68,9.2,5.68,9.17c0-0.04-0.01-0.07-0.03-0.1c-0.03-0.02-0.06-0.03-0.1-0.03
				c-0.01,0-0.02,0-0.03,0s-0.02,0-0.03,0c-0.02,0-0.03,0-0.04-0.01C5.44,9.02,5.43,9.01,5.43,8.99s0.01-0.03,0.02-0.04
				C5.46,8.94,5.48,8.93,5.5,8.93H5.53z M6.47,9.28L6.35,8.79v0.52c0,0.03-0.01,0.05-0.02,0.07C6.32,9.4,6.3,9.4,6.28,9.4
				S6.24,9.39,6.23,9.38C6.21,9.37,6.21,9.35,6.21,9.32v-0.6c0-0.03,0.01-0.06,0.03-0.07C6.25,8.64,6.27,8.63,6.3,8.63h0.05
				c0.03,0,0.05,0,0.06,0.01c0.01,0.01,0.02,0.01,0.03,0.03C6.45,8.68,6.45,8.7,6.46,8.73l0.11,0.42l0.11-0.42
				C6.69,8.7,6.7,8.68,6.7,8.67s0.02-0.02,0.03-0.03c0.02,0,0.04-0.01,0.07-0.01h0.05c0.03,0,0.05,0.01,0.07,0.02
				s0.03,0.03,0.03,0.07v0.6c0,0.03-0.01,0.05-0.02,0.07C6.91,9.4,6.89,9.4,6.87,9.4S6.83,9.39,6.82,9.38
				C6.8,9.37,6.8,9.35,6.8,9.32V8.79L6.68,9.28C6.67,9.31,6.66,9.33,6.66,9.35C6.65,9.36,6.64,9.37,6.63,9.39
				C6.62,9.4,6.6,9.4,6.57,9.4c-0.02,0-0.03,0-0.05-0.01c-0.01,0-0.01-0.01-0.02-0.03C6.49,9.35,6.49,9.34,6.48,9.32
				C6.48,9.31,6.47,9.29,6.47,9.28z M7.43,8.62c0.08,0,0.15,0.02,0.2,0.05C7.69,8.7,7.73,8.75,7.76,8.8C7.79,8.86,7.8,8.93,7.8,9.01
				c0,0.06-0.01,0.11-0.02,0.16C7.77,9.22,7.74,9.26,7.71,9.3C7.68,9.33,7.64,9.36,7.59,9.38C7.55,9.4,7.49,9.4,7.43,9.4
				S7.32,9.39,7.27,9.37C7.23,9.36,7.19,9.33,7.16,9.3C7.13,9.26,7.1,9.22,7.09,9.17c-0.02-0.05-0.02-0.1-0.02-0.16
				c0-0.06,0.01-0.11,0.03-0.16c0-0.05,0.03-0.09,0.06-0.12C7.19,8.7,7.23,8.67,7.28,8.65S7.37,8.62,7.43,8.62z M7.65,9.01
				c0-0.06-0.01-0.1-0.03-0.14s-0.04-0.08-0.07-0.1C7.51,8.75,7.47,8.74,7.43,8.74c-0.03,0-0.06,0.01-0.09,0.02
				C7.32,8.77,7.3,8.79,7.28,8.81C7.26,8.83,7.24,8.86,7.23,8.89C7.22,8.93,7.22,8.97,7.22,9.01s0.01,0.08,0.02,0.12
				c0.01,0.03,0.03,0.06,0.05,0.09C7.3,9.24,7.32,9.25,7.35,9.27C7.37,9.28,7.4,9.28,7.43,9.28c0.04,0,0.08-0.01,0.11-0.03
				C7.57,9.23,7.6,9.2,7.62,9.16S7.65,9.07,7.65,9.01z M8.14,8.71l0.3,0.45V8.71c0-0.03,0.01-0.05,0.02-0.07
				c0-0.01,0.02-0.02,0.04-0.02s0.04,0.01,0.05,0.02s0.02,0.04,0.02,0.07v0.6c0,0.07-0.03,0.1-0.08,0.1c-0.01,0-0.03,0-0.04-0.01
				c-0.01,0-0.02-0.01-0.03-0.02C8.41,9.37,8.4,9.36,8.4,9.35C8.39,9.34,8.38,9.33,8.37,9.31L8.08,8.87v0.44
				c0,0.03-0.01,0.05-0.02,0.07C8.05,9.4,8.03,9.4,8.01,9.4c-0.02,0-0.04-0.01-0.05-0.02C7.95,9.37,7.94,9.35,7.94,9.32V8.73
				c0-0.02,0-0.04,0.01-0.06s0.02-0.03,0.03-0.04C8,8.62,8.01,8.62,8.03,8.62c0.01,0,0.03,0,0.04,0.01c0.01,0,0.02,0.01,0.03,0.02
				c0,0,0.01,0.01,0.01,0.02C8.12,8.69,8.13,8.7,8.14,8.71z M9.23,8.76H9.07v0.55c0,0.03-0.01,0.06-0.02,0.07
				C9.03,9.4,9.01,9.4,8.99,9.4S8.95,9.39,8.93,9.38C8.92,9.37,8.91,9.34,8.91,9.31V8.76H8.75c-0.03,0-0.05-0.01-0.06-0.02
				C8.67,8.73,8.67,8.72,8.67,8.7s0.01-0.04,0.02-0.05C8.7,8.64,8.72,8.63,8.75,8.63h0.49c0.03,0,0.05,0.01,0.06,0.02
				C9.31,8.66,9.31,8.68,9.31,8.7c0,0.02-0.01,0.03-0.02,0.05C9.28,8.75,9.26,8.76,9.23,8.76z M9.56,8.71v0.22h0.33V8.71
				c0-0.03,0.01-0.05,0.02-0.07c0.01-0.02,0.03-0.02,0.06-0.02c0.02,0,0.04,0.01,0.06,0.02c0.01,0.02,0.02,0.04,0.02,0.07v0.6
				c0,0.03-0.01,0.05-0.02,0.07S9.99,9.4,9.97,9.4c-0.02,0-0.04-0.01-0.06-0.02C9.9,9.37,9.89,9.34,9.89,9.31V9.06H9.56v0.26
				c0,0.03-0.01,0.05-0.02,0.07C9.52,9.4,9.5,9.4,9.48,9.4S9.44,9.39,9.42,9.38C9.41,9.37,9.41,9.34,9.41,9.31v-0.6
				c0-0.03,0.01-0.05,0.02-0.07c0.01-0.02,0.03-0.02,0.06-0.02c0.02,0,0.04,0.01,0.06,0.02C9.55,8.66,9.56,8.68,9.56,8.71z"/>
		</g>
	</g>
</g>
<g>
	<g>
		<g>
			<path id="SVGID_9_" class="st2" d="M7.56,4.83c0.09,0,0.18-0.03,0.24-0.08c0.07-0.06,0.1-0.14,0.1-0.24
				c0-0.08-0.03-0.15-0.08-0.2c-0.05-0.07-0.12-0.1-0.21-0.1c-0.06,0-0.11,0.01-0.16,0.03c-0.04,0.02-0.07,0.04-0.1,0.07
				C7.33,4.34,7.31,4.37,7.29,4.42C7.27,4.46,7.25,4.51,7.23,4.55C7.22,4.57,7.2,4.59,7.18,4.6c-0.03,0.01-0.06,0.02-0.1,0.02
				S7,4.6,6.97,4.57C6.93,4.53,6.92,4.49,6.92,4.43c0-0.05,0.02-0.11,0.05-0.17C7,4.2,7.05,4.15,7.11,4.09
				C7.17,4.04,7.25,4,7.34,3.97s0.2-0.05,0.31-0.05c0.1,0,0.19,0.01,0.27,0.04s0.15,0.07,0.21,0.12C8.2,4.13,8.25,4.19,8.28,4.26
				C8.31,4.32,8.32,4.4,8.32,4.47c0,0.1-0.02,0.19-0.07,0.27c-0.04,0.07-0.1,0.15-0.19,0.22C8.14,5,8.21,5.05,8.27,5.1
				c0.06,0.06,0.1,0.12,0.12,0.18C8.42,5.35,8.43,5.42,8.43,5.5c0,0.09-0.02,0.18-0.06,0.27c-0.03,0.1-0.09,0.18-0.16,0.24
				C8.14,6.08,8.05,6.14,7.95,6.17c-0.1,0.04-0.21,0.06-0.33,0.06S7.39,6.21,7.29,6.16C7.19,6.12,7.11,6.07,7.04,6
				C6.98,5.93,6.93,5.86,6.9,5.79C6.87,5.72,6.85,5.66,6.85,5.62c0-0.06,0.02-0.11,0.06-0.14C6.95,5.44,7,5.42,7.05,5.42
				c0.03,0,0.06,0.01,0.08,0.03C7.16,5.46,7.18,5.48,7.19,5.5C7.24,5.65,7.3,5.75,7.36,5.82s0.15,0.1,0.26,0.1
				c0.06,0,0.13-0.02,0.18-0.05C7.86,5.85,7.91,5.8,7.95,5.74c0.04-0.06,0.06-0.13,0.06-0.21c0-0.12-0.03-0.22-0.1-0.28
				c-0.07-0.07-0.16-0.1-0.28-0.1c-0.02,0-0.05,0-0.1,0.01c-0.04,0-0.07,0.01-0.08,0.01c-0.06,0-0.1-0.01-0.13-0.04
				C7.29,5.08,7.28,5.04,7.28,4.99S7.3,4.9,7.34,4.87C7.37,4.84,7.43,4.83,7.5,4.83H7.56z"/>
		</g>
	</g>
</g>
<g>
	<g>
		<g>
			<path id="SVGID_11_" class="st3" d="M11.13,14.25c-0.01,0.03-0.03,0.06-0.05,0.08c-0.02,0.02-0.05,0.04-0.08,0.05
				s-0.07,0.02-0.11,0.02l0,0c-0.02,0-0.03,0-0.05-0.01s-0.03-0.01-0.05-0.02s-0.03-0.02-0.04-0.03c-0.01-0.01-0.02-0.02-0.03-0.04
				c-0.03,0.03-0.06,0.05-0.09,0.07c-0.03,0.02-0.07,0.03-0.1,0.03c-0.02,0-0.03,0-0.05-0.01c-0.02,0-0.03-0.01-0.05-0.02
				s-0.03-0.02-0.04-0.03c-0.01-0.01-0.02-0.03-0.03-0.04c-0.01,0.01-0.03,0.03-0.04,0.04s-0.03,0.02-0.05,0.03
				c-0.02,0.01-0.04,0.01-0.06,0.02c-0.02,0-0.04,0.01-0.07,0.01h-0.01v-0.13h0.01c0.03,0,0.05-0.01,0.07-0.02
				c0.02-0.01,0.04-0.02,0.05-0.04c0.02-0.02,0.03-0.04,0.04-0.06s0.02-0.04,0.03-0.07c0.01-0.02,0.02-0.05,0.02-0.07
				c0.01-0.02,0.01-0.05,0.02-0.07l0.13,0.03c0,0.01-0.01,0.02-0.01,0.04c-0.01,0.02-0.01,0.03-0.01,0.05s-0.01,0.04-0.01,0.06
				s-0.01,0.04-0.01,0.05s0,0.02,0,0.03c0,0.01,0.01,0.02,0.01,0.03c0.01,0.01,0.01,0.02,0.02,0.02s0.02,0.01,0.03,0.01
				c0.02,0,0.04-0.01,0.06-0.02s0.03-0.03,0.05-0.05c0.01-0.02,0.03-0.04,0.04-0.07c0.01-0.02,0.02-0.05,0.03-0.08
				c0.01-0.03,0.01-0.05,0.02-0.07c0-0.02,0.01-0.04,0.01-0.06l0.12,0.02v0.02c0,0.01-0.01,0.03-0.01,0.05s-0.01,0.04-0.01,0.06
				s0,0.04,0,0.06s0,0.03,0,0.05c0,0.01,0.01,0.03,0.01,0.04c0.01,0.01,0.01,0.02,0.02,0.03c0.01,0.01,0.02,0.01,0.03,0.01
				c0.01,0,0.02,0,0.02,0c0.01,0,0.02,0,0.04,0c0.01,0,0.02-0.01,0.03-0.02c0.01-0.01,0.02-0.02,0.02-0.04
				c0-0.02,0.01-0.03,0.01-0.05s0-0.05-0.01-0.08s-0.01-0.06-0.02-0.08c-0.01-0.03-0.02-0.05-0.03-0.08
				c-0.01-0.02-0.02-0.04-0.03-0.06l0.11-0.06c0,0,0.01,0.01,0.01,0.03c0.01,0.01,0.01,0.03,0.02,0.05s0.02,0.04,0.02,0.06
				c0.01,0.02,0.02,0.05,0.02,0.07c0.01,0.02,0.01,0.05,0.02,0.08c0,0.03,0.01,0.05,0.01,0.08C11.14,14.18,11.14,14.22,11.13,14.25z
				 M10.06,14.6l-0.1,0.1l-0.11-0.11l0.11-0.11L10.06,14.6z M9.8,14.59L9.69,14.7l-0.11-0.11l0.11-0.11L9.8,14.59z M10.14,14.38
				c-0.04,0-0.08-0.01-0.11-0.02C10,14.34,9.98,14.33,9.96,14.3c-0.01,0.01-0.03,0.03-0.05,0.04s-0.04,0.02-0.06,0.03
				c-0.02,0.01-0.05,0.01-0.08,0.02c-0.03,0-0.07,0-0.11,0h-0.1v-0.13h0.1c0.04,0,0.08,0,0.11-0.01s0.05-0.02,0.07-0.03
				c0.02-0.01,0.03-0.03,0.04-0.05s0.01-0.04,0.01-0.07c0-0.02,0-0.05-0.01-0.08c0-0.03-0.01-0.05-0.02-0.09L10,13.9
				c0,0.02,0.01,0.03,0.01,0.04s0.01,0.03,0.01,0.04c0,0.02,0,0.03,0.01,0.05c0,0.02,0,0.04,0.01,0.06c0,0.02,0,0.03,0.01,0.05
				c0,0.02,0.01,0.03,0.02,0.05s0.02,0.03,0.03,0.04c0.01,0.01,0.03,0.02,0.05,0.02h0.01v0.13C10.16,14.38,10.14,14.38,10.14,14.38z
				 M9.58,14.38c-0.02,0-0.04,0-0.07-0.01c-0.02-0.01-0.04-0.02-0.06-0.03c-0.02-0.01-0.04-0.03-0.05-0.04
				c-0.02-0.02-0.03-0.04-0.04-0.06c-0.01,0.02-0.02,0.04-0.03,0.06c-0.01,0.02-0.03,0.03-0.04,0.04c-0.02,0.01-0.03,0.02-0.05,0.03
				c-0.02,0.01-0.04,0.01-0.06,0.01c-0.04,0-0.08-0.01-0.11-0.03C9.02,14.33,9,14.3,8.98,14.26c-0.01,0.02-0.02,0.03-0.04,0.05
				c-0.01,0.02-0.03,0.03-0.05,0.04s-0.04,0.02-0.05,0.03c-0.02,0.01-0.04,0.01-0.06,0.01s-0.04,0-0.06-0.01s-0.04-0.01-0.05-0.03
				c-0.02-0.01-0.03-0.03-0.04-0.04c-0.01-0.02-0.02-0.03-0.03-0.05c-0.01,0.02-0.03,0.04-0.04,0.05c-0.02,0.02-0.03,0.03-0.05,0.04
				s-0.04,0.02-0.06,0.03c-0.02,0.01-0.04,0.01-0.07,0.01H8.37v-0.13h0.01c0.02,0,0.04,0,0.05-0.01c0.02-0.01,0.03-0.02,0.05-0.03
				c0.02-0.01,0.03-0.03,0.04-0.05s0.02-0.03,0.03-0.05c0.01-0.02,0.02-0.04,0.03-0.06C8.59,14.03,8.6,14.02,8.6,14
				s0.01-0.03,0.01-0.05c0-0.01,0.01-0.03,0.01-0.04l0.12,0.03c0,0.01-0.01,0.03-0.01,0.05s-0.01,0.04-0.01,0.06
				s-0.01,0.05-0.01,0.07c0,0.01,0,0.02,0,0.02c0,0.01,0,0.03,0,0.04c0,0.02,0.01,0.03,0.02,0.04s0.02,0.02,0.04,0.02
				c0.02,0,0.04-0.01,0.06-0.02s0.03-0.03,0.05-0.05c0.01-0.02,0.03-0.04,0.03-0.07c0.01-0.02,0.02-0.05,0.02-0.08
				c0.01-0.03,0.01-0.05,0.02-0.08s0.01-0.05,0.01-0.07l0.13,0.02c0,0.02,0,0.03-0.01,0.06c0,0.02-0.01,0.04-0.01,0.07
				c0,0.02,0,0.03,0,0.05c0,0.01,0,0.02,0,0.03c0,0.02,0,0.03,0.01,0.05s0.02,0.03,0.03,0.05c0.01,0.01,0.03,0.02,0.05,0.02
				s0.04-0.01,0.05-0.02s0.02-0.03,0.03-0.05c0.01-0.02,0.01-0.04,0.02-0.07c0-0.03,0.01-0.05,0.01-0.08c0-0.01,0-0.03,0-0.04
				s0-0.03,0-0.04c0-0.02,0-0.03,0-0.05L9.4,13.9c0,0.01,0,0.03,0,0.04s0,0.03,0.01,0.05c0,0.02,0.01,0.03,0.01,0.05
				s0.01,0.04,0.02,0.06c0.02,0.05,0.04,0.09,0.06,0.12c0.03,0.03,0.05,0.04,0.08,0.04H9.6v0.13H9.58V14.38z M7.88,13.66l0.11-0.11
				l0.11,0.11l-0.11,0.11L7.88,13.66z M8.15,13.66l0.11-0.11l0.11,0.11l-0.11,0.11L8.15,13.66z M8.38,14.38
				c-0.04,0-0.08-0.01-0.11-0.02c-0.03-0.02-0.05-0.03-0.07-0.06c-0.01,0.01-0.03,0.03-0.05,0.04s-0.04,0.02-0.06,0.03
				c-0.02,0.01-0.05,0.01-0.08,0.02c-0.03,0-0.07,0-0.11,0H7.8v-0.13h0.1c0.04,0,0.08,0,0.11-0.01c0.03-0.01,0.05-0.02,0.07-0.03
				c0.02-0.01,0.03-0.03,0.04-0.05s0.01-0.04,0.01-0.07c0-0.02,0-0.05-0.01-0.08c0-0.03-0.01-0.05-0.02-0.09l0.12-0.03
				c0,0.02,0.01,0.03,0.01,0.04s0.01,0.03,0.01,0.04c0,0.02,0,0.03,0.01,0.05c0,0.02,0,0.04,0.01,0.06c0,0.02,0,0.03,0.01,0.05
				c0,0.02,0.01,0.03,0.02,0.05s0.02,0.03,0.03,0.04c0.01,0.01,0.03,0.02,0.05,0.02h0.01L8.38,14.38L8.38,14.38z M7.63,14.1
				c0-0.01,0-0.02-0.01-0.04c-0.01-0.02-0.01-0.04-0.02-0.05c-0.01,0-0.02-0.01-0.03-0.02s-0.02-0.01-0.03-0.01s-0.02,0-0.02,0l0,0
				c-0.01,0-0.03,0.01-0.05,0.03c-0.02,0.02-0.04,0.05-0.05,0.08c-0.01,0.01-0.01,0.03-0.02,0.04c-0.01,0.01-0.01,0.03-0.02,0.04
				l0.04,0.02c0.02,0.01,0.04,0.02,0.06,0.02c0.02,0.01,0.04,0.01,0.05,0.02c0.02,0.01,0.03,0.01,0.05,0.01
				c0.01,0,0.02,0.01,0.02,0.01c0.01-0.01,0.01-0.02,0.02-0.04c0-0.02,0.01-0.03,0.01-0.05c0-0.01,0-0.02,0-0.03
				C7.63,14.12,7.63,14.12,7.63,14.1z M7.83,14.38c-0.03,0-0.05-0.01-0.07-0.02s-0.04-0.03-0.06-0.04
				c-0.01,0.01-0.02,0.02-0.04,0.03c-0.01,0.01-0.03,0.02-0.04,0.02c-0.01,0-0.01,0-0.02,0c-0.01,0-0.02,0-0.03,0
				s-0.03-0.01-0.05-0.01c-0.02-0.01-0.04-0.01-0.06-0.02s-0.05-0.02-0.08-0.03l-0.16-0.06c0,0,0,0,0,0.01c0,0,0,0.01,0,0.02
				s0,0.03,0,0.06c0,0.03,0,0.06,0,0.11c0,0.05,0,0.1,0.01,0.17c0,0.07,0.01,0.16,0.01,0.26H7.11l-0.02-0.6c0,0,0-0.01,0-0.02
				s0-0.02,0-0.03c0-0.01,0.01-0.02,0.02-0.04c0.01-0.01,0.02-0.03,0.03-0.04c0.01,0,0.01-0.01,0.02-0.01
				c0.01,0,0.02-0.01,0.03-0.01s0.02,0,0.03,0c0,0,0.01,0,0.02,0c0.01,0,0.02,0,0.03,0.01c0.01-0.02,0.02-0.04,0.02-0.06
				C7.3,14.04,7.31,14.02,7.32,14s0.03-0.04,0.04-0.06c0.01-0.02,0.03-0.04,0.05-0.05s0.04-0.02,0.06-0.03
				c0.02-0.01,0.04-0.01,0.06-0.01h0.01c0.03,0,0.07,0.01,0.1,0.02c0.03,0.01,0.05,0.03,0.07,0.06c0.01,0.01,0.02,0.03,0.03,0.05
				s0.01,0.04,0.02,0.06c0,0.02,0.01,0.04,0.01,0.06c0,0.01,0,0.02,0,0.03c0,0.01,0,0.02,0,0.03c0,0.01,0,0.02,0.01,0.03
				c0,0.01,0.01,0.02,0.01,0.03c0.01,0.01,0.01,0.02,0.02,0.03c0.01,0.01,0.02,0.01,0.03,0.01h0.01v0.13H7.83V14.38z M6.58,13.64
				c0.02,0.02,0.04,0.04,0.07,0.06s0.05,0.05,0.07,0.07c0.03,0.04,0.06,0.07,0.08,0.1c0.02,0.03,0.04,0.06,0.05,0.09
				s0.02,0.06,0.02,0.08c0,0.02,0,0.03,0,0.05c0,0.01,0,0.02,0,0.04c0,0.02-0.01,0.03-0.01,0.05c-0.01,0.02-0.01,0.04-0.02,0.05
				c-0.04,0.07-0.1,0.11-0.2,0.13c-0.02,0-0.03,0-0.06,0H6.37v-0.13h0.08c0.03,0,0.05,0,0.08,0c0.03,0,0.05,0,0.08-0.01
				c0.03,0,0.05-0.01,0.07-0.02s0.04-0.02,0.05-0.04c0.01-0.02,0.02-0.05,0.03-0.07c0-0.01,0-0.01,0-0.02c0-0.02,0-0.04-0.01-0.07
				c0-0.02-0.02-0.04-0.04-0.07s-0.04-0.06-0.07-0.09s-0.06-0.06-0.09-0.1c-0.03-0.03-0.07-0.06-0.1-0.09l0.02-0.13L7,13.32
				l0.05,0.12L6.58,13.64z M6.38,14.38c-0.05,0-0.09-0.01-0.12-0.02c-0.03-0.01-0.06-0.03-0.09-0.05c-0.01-0.01-0.03-0.03-0.03-0.05
				s-0.01-0.03-0.02-0.05c0-0.02-0.01-0.03-0.01-0.05c0-0.01,0-0.03,0-0.04c0,0,0-0.01,0-0.03c0-0.02,0-0.04,0-0.07s0-0.06,0-0.09
				s0-0.07,0-0.11s0-0.08,0-0.12s0-0.08,0-0.12s0-0.07-0.01-0.1c0-0.03-0.01-0.06-0.01-0.08l0.13-0.02c0,0.02,0.01,0.05,0.01,0.08
				s0.01,0.07,0.01,0.1c0,0.04,0,0.08,0,0.12s0,0.08,0,0.12v0.33c0,0.01,0,0.03,0,0.04s0.01,0.02,0.02,0.03
				c0.01,0.01,0.02,0.02,0.04,0.02c0.02,0.01,0.04,0.01,0.07,0.01H6.4v0.13H6.38V14.38z M5.84,14.1c0,0,0-0.01,0-0.02
				s0-0.02-0.01-0.02c0-0.01-0.01-0.02-0.01-0.03c0-0.01-0.01-0.02-0.02-0.03c0,0-0.01-0.01-0.02-0.02
				c-0.01-0.01-0.02-0.01-0.03-0.01s-0.02,0-0.02,0.01c-0.01,0-0.02,0.01-0.02,0.02c-0.01,0.01-0.02,0.02-0.02,0.04
				c-0.01,0.02-0.02,0.03-0.03,0.06l-0.03,0.07c0.04,0.03,0.08,0.05,0.11,0.06c0.02,0.01,0.04,0.01,0.06,0.01c0.01,0,0.02,0,0.02,0
				c0.01,0,0.01-0.01,0.02-0.02c0.01-0.01,0.01-0.02,0.02-0.03c0-0.01,0.01-0.03,0.01-0.05c0-0.01,0-0.01,0-0.02
				C5.85,14.12,5.85,14.11,5.84,14.1z M5.97,14.18c0,0.02-0.01,0.05-0.02,0.07c-0.01,0.03-0.03,0.05-0.05,0.07
				c-0.02,0.02-0.04,0.03-0.07,0.04c-0.02,0-0.04,0.01-0.05,0.01s-0.02,0-0.04,0s-0.04-0.01-0.06-0.02
				c-0.03-0.01-0.05-0.02-0.07-0.04c-0.02-0.01-0.05-0.03-0.06-0.04c-0.02,0.02-0.03,0.04-0.05,0.06c-0.02,0.01-0.04,0.02-0.06,0.03
				c-0.02,0.01-0.04,0.01-0.07,0.02c-0.02,0-0.05,0-0.08,0H5.27v-0.13h0.01c0.04,0,0.07-0.01,0.1-0.02
				c0.03-0.01,0.05-0.03,0.07-0.05s0.03-0.04,0.05-0.07c0.01-0.03,0.03-0.05,0.04-0.08c0.01-0.02,0.02-0.05,0.04-0.07
				c0.01-0.02,0.03-0.04,0.05-0.06s0.04-0.03,0.06-0.05c0.02-0.01,0.05-0.02,0.08-0.02c0.03,0,0.06,0.01,0.09,0.02
				s0.05,0.03,0.07,0.05s0.03,0.05,0.04,0.08c0.01,0.03,0.02,0.06,0.02,0.09c0,0.01,0,0.03,0,0.05C5.97,14.14,5.97,14.16,5.97,14.18
				z M5.28,14.38c-0.03,0-0.05,0-0.07-0.01c-0.02,0-0.04-0.01-0.05-0.02v0.04c0,0.05-0.01,0.1-0.02,0.15
				c-0.01,0.04-0.03,0.08-0.06,0.11C5.05,14.68,5.03,14.7,5,14.73c-0.03,0.02-0.06,0.04-0.09,0.05S4.84,14.8,4.8,14.8
				c-0.02,0-0.05,0.01-0.07,0.01c-0.01,0-0.02,0-0.02,0c-0.03,0-0.05-0.01-0.08-0.01c-0.03-0.01-0.06-0.02-0.08-0.03
				c-0.03-0.01-0.05-0.03-0.08-0.05c-0.02-0.02-0.05-0.04-0.06-0.07c-0.02-0.03-0.03-0.06-0.04-0.09c-0.01-0.03-0.02-0.07-0.02-0.11
				v-0.01c0-0.06,0-0.1,0.01-0.14s0.02-0.07,0.03-0.1c0.01-0.03,0.02-0.06,0.04-0.08l0.12,0.05c-0.01,0.01-0.01,0.02-0.02,0.03
				c-0.01,0.01-0.01,0.02-0.02,0.04c-0.01,0.02-0.02,0.05-0.02,0.09c-0.01,0.03-0.01,0.07-0.01,0.12c0,0.03,0,0.05,0.01,0.08
				c0.01,0.02,0.02,0.04,0.03,0.06s0.03,0.03,0.04,0.05c0.02,0.01,0.03,0.02,0.05,0.03c0.02,0.01,0.04,0.01,0.05,0.02
				c0.02,0,0.03,0.01,0.05,0.01c0.01,0,0.01,0,0.02,0c0.02,0,0.04,0,0.06,0s0.04-0.01,0.07-0.02c0.02-0.01,0.05-0.02,0.07-0.04
				c0.02-0.02,0.04-0.03,0.06-0.06c0.02-0.02,0.03-0.05,0.04-0.08c0.01-0.03,0.01-0.06,0.01-0.1c0-0.03,0-0.07,0-0.12s0-0.1,0-0.15
				s0-0.11-0.01-0.16c0-0.06,0-0.11-0.01-0.17c0-0.06,0-0.13-0.01-0.19c0-0.07-0.01-0.13-0.01-0.2h0.13c0,0.07,0.01,0.14,0.01,0.2
				c0,0.07,0.01,0.13,0.01,0.19c0,0.05,0,0.11,0.01,0.16c0,0.06,0,0.11,0.01,0.16c0,0.02,0,0.04,0.01,0.05
				c0.01,0.02,0.01,0.03,0.02,0.05c0.01,0.01,0.02,0.02,0.04,0.03c0.02,0.01,0.04,0.01,0.06,0.01h0.01v0.13H5.28V14.38z
				 M11.49,11.56l0.5-0.21l0.04,0.08l-0.54,0.23V11.56z M11.69,11.87c0.02,0.01,0.04,0.03,0.07,0.05c0.02,0.02,0.04,0.04,0.07,0.07
				c0.02,0.02,0.04,0.05,0.06,0.08s0.03,0.05,0.05,0.08c0.01,0.03,0.02,0.06,0.03,0.08c0.01,0.03,0.01,0.06,0.01,0.08
				c0,0.04-0.01,0.09-0.03,0.13c-0.02,0.04-0.04,0.07-0.07,0.1c-0.03,0.03-0.06,0.05-0.1,0.07c-0.04,0.02-0.08,0.02-0.13,0.02h-0.2
				v-0.21h0.06c0.03,0,0.05,0,0.08,0s0.05,0,0.08-0.01c0.02,0,0.05-0.01,0.07-0.02c0.02-0.01,0.04-0.02,0.05-0.03
				c0.01-0.01,0.02-0.03,0.02-0.05s0-0.05-0.01-0.08c0-0.01-0.01-0.02-0.02-0.04c-0.01-0.02-0.02-0.03-0.04-0.05
				c-0.02-0.02-0.03-0.04-0.05-0.06s-0.04-0.04-0.06-0.06s-0.05-0.04-0.07-0.06c-0.02-0.02-0.05-0.04-0.07-0.06l0.02-0.18l0.55-0.24
				l0.08,0.17L11.69,11.87z M11.45,12.63c-0.05,0-0.1-0.01-0.14-0.02s-0.07-0.03-0.09-0.06c-0.02-0.03-0.04-0.06-0.05-0.09
				s-0.02-0.07-0.02-0.11c0-0.02,0-0.05,0-0.08s0-0.07,0-0.11s0-0.09,0-0.13c0-0.05,0-0.1,0-0.15c0-0.05,0-0.1-0.01-0.14
				c0-0.05-0.01-0.08-0.02-0.12l0.19-0.06c0.01,0.03,0.01,0.06,0.01,0.1s0.01,0.08,0.01,0.12s0,0.09,0,0.13s0,0.08,0,0.12
				c0,0.03,0,0.07,0,0.1c0,0.04,0,0.07,0,0.1c0,0.03,0,0.06,0,0.09s0.01,0.05,0.01,0.06s0.01,0.02,0.01,0.02
				c0.01,0.01,0.01,0.01,0.02,0.01s0.02,0,0.03,0c0.01,0,0.02,0,0.03,0h0.02L11.45,12.63L11.45,12.63L11.45,12.63z M11.07,12.65
				c-0.01,0.04-0.03,0.08-0.05,0.11c-0.02,0.04-0.04,0.07-0.07,0.1c-0.03,0.03-0.06,0.06-0.09,0.09s-0.07,0.06-0.11,0.08
				c-0.04,0.03-0.08,0.05-0.12,0.07l-0.12-0.16c0.03-0.02,0.06-0.03,0.09-0.05s0.06-0.04,0.09-0.06s0.06-0.05,0.08-0.07
				c0.03-0.02,0.05-0.05,0.07-0.08c0.02-0.03,0.03-0.05,0.04-0.08s0.02-0.05,0.02-0.08c0-0.02,0-0.04-0.01-0.06
				c0-0.02-0.01-0.04-0.02-0.07c-0.01-0.02-0.02-0.05-0.03-0.08c-0.01-0.03-0.02-0.06-0.04-0.09l0.2-0.07
				c0.01,0.03,0.02,0.06,0.03,0.09c0.01,0.03,0.02,0.06,0.03,0.1c0.01,0.03,0.02,0.07,0.02,0.1c0.01,0.03,0.01,0.06,0.01,0.09
				C11.09,12.57,11.08,12.61,11.07,12.65z M10.65,12.27c0,0.03,0,0.07,0,0.11s0,0.08,0,0.11c0,0.04,0,0.08-0.01,0.11l-0.2,0.03
				c0-0.04,0-0.07,0.01-0.11c0-0.04,0-0.08,0.01-0.11c0-0.04,0-0.07,0-0.11s0-0.07,0-0.1c0-0.06,0-0.12-0.01-0.16
				c0-0.05,0-0.09-0.01-0.12c0-0.04,0-0.07-0.01-0.09c0-0.03,0-0.05-0.01-0.07c0-0.02-0.01-0.04-0.01-0.06s-0.01-0.04-0.01-0.06
				l0.2-0.07c0.01,0.06,0.02,0.12,0.02,0.18c0.01,0.06,0.01,0.12,0.01,0.17s0.01,0.1,0.01,0.15c0,0.05,0,0.09,0,0.12
				C10.65,12.2,10.65,12.23,10.65,12.27z M9.98,11.76l0.14-0.14l0.14,0.14l-0.14,0.14L9.98,11.76z M10.35,12.47
				c-0.02,0.04-0.04,0.07-0.07,0.09s-0.07,0.04-0.11,0.05s-0.09,0.02-0.14,0.02h-0.1v-0.21h0.09c0.02,0,0.04,0,0.06,0
				s0.04-0.01,0.06-0.01c0.02-0.01,0.03-0.02,0.05-0.03c0.01-0.01,0.02-0.03,0.02-0.04s0-0.03-0.01-0.05s-0.01-0.04-0.02-0.07
				s-0.02-0.05-0.03-0.08c-0.01-0.03-0.03-0.05-0.04-0.08l0.19-0.09c0.01,0.03,0.02,0.06,0.04,0.09c0.01,0.03,0.02,0.06,0.03,0.09
				c0.01,0.03,0.02,0.06,0.02,0.09c0.01,0.03,0.01,0.06,0.01,0.09C10.38,12.39,10.37,12.43,10.35,12.47z M9.67,11.86l-0.12,0.12
				l-0.13-0.13l0.12-0.13L9.67,11.86l0.12-0.13l0.13,0.13L9.8,11.99L9.67,11.86z M9.93,12.63c-0.02,0-0.04,0-0.06-0.01
				c-0.02,0-0.04-0.01-0.06-0.01C9.8,12.6,9.78,12.6,9.77,12.59c-0.01-0.01-0.03-0.02-0.04-0.03c-0.02,0.02-0.04,0.03-0.07,0.04
				s-0.05,0.02-0.08,0.02s-0.06,0.01-0.09,0.01s-0.06,0-0.09,0H9.37v-0.21h0.02c0.03,0,0.06,0,0.08,0c0.02,0,0.05,0,0.06-0.01
				c0.02,0,0.03-0.01,0.05-0.02c0.01-0.01,0.02-0.02,0.03-0.03c0.01-0.01,0.02-0.03,0.02-0.05s0-0.03,0-0.05s-0.01-0.04-0.01-0.05
				c0-0.02-0.01-0.03-0.01-0.05l0.19-0.05c0.01,0.02,0.01,0.04,0.01,0.05c0,0.02,0.01,0.03,0.01,0.05s0.01,0.03,0.01,0.05
				s0,0.03,0.01,0.05c0,0.01,0,0.02,0.01,0.04c0,0.01,0.01,0.03,0.01,0.04c0.01,0.01,0.02,0.02,0.03,0.03
				c0.01,0.01,0.03,0.01,0.05,0.01h0.02v0.21H9.93V12.63z M9.31,12.63c0.01,0.02,0.02,0.03,0.02,0.05s0.01,0.03,0.01,0.05
				c0,0.04-0.01,0.08-0.03,0.11c-0.02,0.03-0.04,0.06-0.07,0.08c-0.03,0.02-0.06,0.04-0.1,0.06C9.1,13,9.06,13.01,9.02,13.02
				s-0.08,0.02-0.11,0.02c-0.04,0-0.07,0.01-0.1,0.01c-0.05,0-0.09,0-0.14-0.01c-0.04-0.01-0.08-0.02-0.12-0.03
				c-0.04-0.01-0.07-0.03-0.1-0.06c-0.03-0.02-0.06-0.05-0.08-0.08c-0.02-0.03-0.04-0.07-0.05-0.11S8.3,12.67,8.3,12.62
				c0-0.04,0-0.07,0-0.11c0-0.03,0.01-0.07,0.02-0.1c0.01-0.03,0.02-0.07,0.03-0.1c0.01-0.03,0.02-0.07,0.04-0.11l0.17,0.07
				c-0.01,0.03-0.02,0.06-0.03,0.08C8.5,12.38,8.5,12.4,8.49,12.42s-0.01,0.04-0.01,0.06s-0.01,0.03-0.01,0.05s0,0.03,0,0.05
				s0,0.03,0,0.05c0,0.03,0.01,0.06,0.02,0.08c0.01,0.02,0.02,0.04,0.04,0.06c0.02,0.02,0.04,0.03,0.06,0.04s0.05,0.02,0.07,0.02
				c0.03,0.01,0.05,0.01,0.08,0.01s0.05,0,0.07,0c0.01,0,0.03,0,0.05,0s0.05,0,0.07-0.01c0.03,0,0.05-0.01,0.08-0.01
				c0.03-0.01,0.05-0.01,0.08-0.02c0.02-0.01,0.04-0.02,0.06-0.03c0.01-0.01,0.02-0.03,0.02-0.04c-0.03-0.02-0.07-0.04-0.13-0.06
				c-0.05-0.02-0.12-0.03-0.2-0.04l0.03-0.2H9.4v0.21H9.31V12.63z M8.07,12.47c-0.01,0.03-0.03,0.06-0.05,0.09
				C8,12.58,7.97,12.6,7.93,12.62c-0.04,0.01-0.08,0.02-0.13,0.02c-0.02,0-0.04,0-0.06-0.01c-0.02,0-0.04-0.01-0.05-0.02
				c-0.02-0.01-0.03-0.02-0.04-0.03c-0.01-0.01-0.02-0.02-0.03-0.03c-0.01,0.01-0.02,0.03-0.03,0.04s-0.03,0.02-0.04,0.03
				c-0.02,0.01-0.03,0.01-0.05,0.02c-0.02,0-0.04,0.01-0.06,0.01s-0.04,0-0.06-0.01c-0.02,0-0.03-0.01-0.05-0.02
				c-0.01-0.01-0.03-0.02-0.04-0.03c-0.01-0.01-0.02-0.02-0.03-0.04c-0.01,0.01-0.02,0.02-0.03,0.03c-0.01,0.01-0.03,0.02-0.04,0.03
				c-0.02,0.01-0.03,0.01-0.06,0.02c-0.02,0-0.05,0.01-0.07,0.01H7.02v-0.21h0.01c0.03,0,0.06-0.01,0.08-0.03
				c0.02-0.02,0.04-0.04,0.06-0.07s0.03-0.06,0.04-0.1c0.01-0.04,0.02-0.07,0.03-0.11l0.17,0.03c0,0.02-0.01,0.03-0.01,0.05
				c-0.01,0.02-0.01,0.04-0.01,0.06s-0.01,0.04-0.01,0.06s0,0.04,0,0.05c0,0.02,0.01,0.03,0.01,0.04c0.01,0.01,0.02,0.01,0.03,0.01
				c0.02,0,0.03-0.01,0.05-0.02c0.01-0.01,0.03-0.02,0.04-0.04c0.01-0.02,0.02-0.04,0.03-0.06s0.02-0.04,0.02-0.07
				c0.01-0.02,0.01-0.04,0.02-0.07c0-0.02,0.01-0.04,0.01-0.06l0.17,0.03c0,0.01,0,0.03,0,0.05s-0.01,0.04-0.01,0.06s0,0.04,0,0.06
				s0,0.04,0.01,0.06c0,0.02,0.01,0.03,0.02,0.04c0.01,0.01,0.03,0.02,0.05,0.02c0.01,0,0.02,0,0.04-0.01
				c0.01,0,0.02-0.01,0.03-0.02s0.02-0.02,0.02-0.03c0.01-0.01,0.01-0.02,0.01-0.04c0-0.02,0-0.05-0.01-0.07
				c-0.01-0.03-0.02-0.05-0.03-0.08s-0.02-0.05-0.03-0.08c-0.01-0.02-0.02-0.04-0.03-0.06l0.16-0.09L8,11.97
				c0.01,0.01,0.01,0.03,0.02,0.05s0.02,0.04,0.03,0.07c0.01,0.03,0.02,0.05,0.02,0.08c0.01,0.03,0.01,0.05,0.02,0.08
				c0,0.03,0.01,0.06,0.01,0.08C8.09,12.4,8.09,12.44,8.07,12.47z M6.73,12.31c0-0.01,0-0.02,0-0.03c0-0.01,0-0.03-0.01-0.05
				c0-0.02,0-0.04-0.01-0.06c-0.02,0.01-0.03,0.02-0.06,0.03c-0.02,0.01-0.04,0.02-0.06,0.04c-0.02,0.01-0.03,0.03-0.05,0.04
				c-0.01,0.01-0.02,0.03-0.02,0.04s0,0.01,0.01,0.01s0.02,0.01,0.04,0.01c0.01,0,0.03,0,0.05,0s0.03,0,0.04,0c0.01,0,0.02,0,0.03,0
				s0.02,0,0.03,0C6.73,12.32,6.73,12.32,6.73,12.31z M7.03,12.63c-0.02,0-0.04,0-0.06,0s-0.05-0.01-0.07-0.02s-0.03-0.02-0.05-0.03
				c-0.01-0.01-0.03-0.02-0.04-0.04c-0.02,0-0.04,0.01-0.06,0.01s-0.04,0-0.06,0c-0.04,0-0.08,0-0.12-0.01s-0.07-0.02-0.1-0.04
				c-0.03-0.02-0.05-0.04-0.07-0.07s-0.02-0.06-0.02-0.1c0-0.03,0.01-0.06,0.02-0.08c0.01-0.03,0.03-0.05,0.04-0.07
				c0.02-0.02,0.04-0.04,0.06-0.06s0.05-0.04,0.07-0.05c0.02-0.02,0.05-0.03,0.07-0.04s0.04-0.02,0.06-0.02c0,0,0-0.01,0-0.02
				s0-0.01,0-0.02s0-0.02,0-0.03c0-0.01,0-0.02,0-0.04l0.2-0.04c0.01,0.08,0.02,0.16,0.03,0.22c0.01,0.07,0.02,0.12,0.02,0.17
				c0.01,0.05,0.01,0.09,0.02,0.11c0,0.03,0.01,0.04,0.01,0.04c0.01,0.01,0.02,0.02,0.03,0.03c0.01,0.01,0.03,0.01,0.05,0.01h0.01
				v0.21H7.03V12.63z M5.99,12.35c0-0.03-0.01-0.05-0.02-0.07c-0.01-0.02-0.02-0.04-0.04-0.05c-0.01-0.01-0.03-0.02-0.05-0.02
				c-0.01,0-0.02,0-0.04,0.01c-0.01,0.01-0.02,0.02-0.03,0.04c-0.01,0.01-0.02,0.03-0.03,0.05s-0.01,0.03-0.02,0.05
				c0.01,0.01,0.03,0.02,0.05,0.03c0.02,0.01,0.04,0.01,0.06,0.02s0.04,0.01,0.06,0.01s0.04,0.01,0.06,0.01
				C6,12.4,6,12.37,5.99,12.35z M6.14,12.47c-0.01,0.03-0.02,0.06-0.04,0.08c-0.02,0.02-0.04,0.04-0.06,0.05S6,12.62,5.97,12.62
				s-0.05,0-0.08-0.01c-0.03-0.01-0.06-0.01-0.08-0.02c-0.03-0.01-0.05-0.02-0.08-0.03c-0.02-0.01-0.05-0.02-0.07-0.04
				c-0.01,0.02-0.03,0.03-0.05,0.05c-0.02,0.01-0.03,0.02-0.05,0.03c-0.02,0.01-0.04,0.01-0.06,0.02c-0.02,0-0.04,0-0.07,0H5.41
				v-0.21h0.03c0.03,0,0.05-0.01,0.07-0.02s0.04-0.03,0.05-0.05s0.03-0.04,0.04-0.06c0.01-0.02,0.02-0.04,0.03-0.07
				s0.03-0.05,0.04-0.08c0.02-0.03,0.03-0.05,0.06-0.07c0.02-0.02,0.05-0.04,0.07-0.05c0.03-0.01,0.06-0.02,0.09-0.02
				c0.05,0,0.08,0.01,0.12,0.03c0.03,0.02,0.06,0.05,0.08,0.08s0.04,0.07,0.05,0.12c0.01,0.04,0.02,0.09,0.02,0.13
				C6.15,12.41,6.15,12.44,6.14,12.47z M5.41,12.63c-0.05,0-0.1-0.01-0.14-0.02s-0.07-0.03-0.09-0.06
				c-0.02-0.03-0.04-0.06-0.05-0.09s-0.02-0.07-0.02-0.11c0-0.02,0-0.05,0-0.08s0-0.07,0-0.11s0-0.09,0-0.13c0-0.05,0-0.1,0-0.15
				c0-0.05,0-0.1-0.01-0.14c0-0.05-0.01-0.08-0.02-0.12l0.19-0.06c0.01,0.03,0.01,0.06,0.01,0.1s0.01,0.08,0.01,0.12s0,0.09,0,0.13
				s0,0.08,0,0.12c0,0.03,0,0.07,0,0.1c0,0.04,0,0.07,0,0.1c0,0.03,0,0.06,0,0.09s0.01,0.05,0.01,0.06s0.01,0.02,0.01,0.02
				c0.01,0.01,0.01,0.01,0.02,0.01c0.01,0,0.02,0,0.03,0s0.02,0,0.03,0h0.02L5.41,12.63L5.41,12.63L5.41,12.63z M4.87,12.3
				c-0.01-0.01-0.02-0.02-0.04-0.04c-0.02-0.01-0.03-0.02-0.05-0.04c-0.02-0.01-0.04-0.02-0.05-0.03c0,0.02,0,0.04-0.01,0.06
				c0,0.02-0.01,0.04-0.02,0.06c-0.01,0.02-0.02,0.04-0.02,0.06c-0.01,0.02-0.02,0.04-0.03,0.05h0.01c0.03,0,0.06,0,0.09,0
				s0.05-0.01,0.07-0.01c0.02-0.01,0.03-0.02,0.05-0.03c0.01-0.01,0.02-0.03,0.02-0.05C4.88,12.33,4.88,12.32,4.87,12.3z
				 M4.55,12.19c-0.01-0.01-0.02-0.03-0.03-0.04s-0.02-0.02-0.04-0.03c-0.01-0.01-0.02-0.01-0.03-0.01s-0.03,0-0.04,0.01
				s-0.03,0.02-0.04,0.04c-0.01,0.02-0.02,0.03-0.03,0.05s-0.01,0.04-0.01,0.05s0.01,0.02,0.01,0.03c0.01,0.01,0.02,0.02,0.03,0.03
				c0.01,0.01,0.02,0.02,0.03,0.03c0.01,0.01,0.02,0.01,0.03,0.02c0.02,0,0.03-0.01,0.05-0.01c0.02-0.01,0.03-0.02,0.04-0.03
				c0.01-0.01,0.02-0.03,0.03-0.05s0.01-0.04,0.01-0.07C4.56,12.21,4.55,12.2,4.55,12.19z M5,12.48c-0.02,0.04-0.06,0.08-0.11,0.11
				c-0.01,0.01-0.03,0.01-0.05,0.02s-0.04,0.01-0.06,0.01s-0.04,0.01-0.06,0.01s-0.04,0-0.05,0c-0.02,0-0.04,0-0.06,0
				s-0.04,0-0.06-0.01c-0.02,0-0.04-0.01-0.06-0.01c-0.02-0.01-0.04-0.01-0.06-0.02C4.4,12.6,4.38,12.6,4.35,12.61
				c-0.03,0-0.05,0.01-0.08,0.01c-0.03,0-0.06,0.01-0.09,0.01s-0.06,0-0.09,0H4.07v-0.21h0.04c0,0,0.01,0,0.02,0
				c0.01,0,0.01,0,0.02,0c0.01,0,0.02,0,0.04,0c-0.02-0.03-0.03-0.05-0.03-0.08c-0.01-0.03-0.01-0.06-0.01-0.09
				c0-0.05,0.01-0.09,0.03-0.13s0.04-0.08,0.08-0.11l-0.03-0.02l0.13-0.18c0.06,0.03,0.11,0.06,0.16,0.08
				c0.05,0.03,0.1,0.05,0.15,0.07c0.04,0.02,0.08,0.04,0.11,0.05s0.06,0.03,0.09,0.04s0.05,0.03,0.07,0.04
				c0.02,0.02,0.04,0.03,0.06,0.05c0.02,0.03,0.04,0.06,0.05,0.09s0.01,0.07,0.01,0.1C5.04,12.39,5.03,12.44,5,12.48z M3.78,12.31
				c0-0.01,0-0.02,0-0.03c0-0.01,0-0.03-0.01-0.05c0-0.02,0-0.04-0.01-0.06c-0.02,0.01-0.03,0.02-0.06,0.03
				c-0.02,0.01-0.04,0.02-0.06,0.04c-0.02,0.01-0.03,0.03-0.05,0.04c-0.01,0.01-0.02,0.03-0.02,0.04s0,0.01,0.01,0.01
				s0.02,0.01,0.04,0.01c0.01,0,0.03,0,0.05,0s0.03,0,0.04,0s0.02,0,0.03,0s0.02,0,0.03,0C3.78,12.32,3.78,12.32,3.78,12.31z
				 M4.08,12.63c-0.02,0-0.04,0-0.06,0s-0.05-0.01-0.07-0.02s-0.03-0.02-0.05-0.03c-0.01-0.01-0.03-0.02-0.04-0.04
				c-0.02,0-0.04,0.01-0.06,0.01s-0.04,0-0.06,0c-0.04,0-0.08,0-0.12-0.01s-0.07-0.02-0.1-0.04c-0.03-0.02-0.05-0.04-0.07-0.07
				s-0.02-0.06-0.02-0.1c0-0.03,0.01-0.06,0.02-0.08c0.01-0.03,0.03-0.05,0.04-0.07c0.02-0.02,0.04-0.04,0.06-0.06
				s0.05-0.04,0.07-0.05c0.02-0.02,0.05-0.03,0.07-0.04s0.04-0.02,0.06-0.02c0,0,0-0.01,0-0.02s0-0.01,0-0.02s0-0.02,0-0.03
				c0-0.01,0-0.02,0-0.04l0.2-0.04c0.01,0.08,0.02,0.16,0.03,0.22C3.99,12.15,4,12.2,4,12.25c0.01,0.05,0.01,0.09,0.02,0.11
				C4,12.37,4,12.39,4,12.39c0.01,0.01,0.02,0.02,0.03,0.03c0.01,0.01,0.03,0.01,0.05,0.01H4.1v0.21H4.08V12.63z"/>
		</g>
	</g>
</g>
</svg>
